M48
; DRILL file {KiCad 9.0.1} date 2025-06-04T21:26:04-0500
; FORMAT={-:-/ absolute / metric / decimal}
; #@! TF.CreationDate,2025-06-04T21:26:04-05:00
; #@! TF.GenerationSoftware,Kicad,Pcbnew,9.0.1
; #@! TF.FileFunction,Plated,1,2,PTH
FMAT,2
METRIC
; #@! TA.AperFunction,Plated,PTH,ViaDrill
T1C0.300
; #@! TA.AperFunction,Plated,PTH,ComponentDrill
T2C1.000
; #@! TA.AperFunction,Plated,PTH,ComponentDrill
T3C1.500
; #@! TA.AperFunction,Plated,PTH,ComponentDrill
T4C3.200
%
G90
G05
T1
X32.285Y-74.445
X32.335Y-76.945
X33.41Y-74.37
X33.585Y-52.595
X33.835Y-89.77
X35.185Y-87.62
X36.91Y-73.82
X38.235Y-76.195
X41.76Y-93.595
X44.06Y-52.47
X52.185Y-71.345
X52.41Y-89.345
X54.11Y-72.352
X55.335Y-51.045
X55.385Y-53.57
X63.46Y-59.395
X67.71Y-73.995
X68.735Y-25.645
X69.335Y-90.395
X72.185Y-88.77
X72.235Y-62.495
X72.26Y-59.47
X72.935Y-71.745
X73.06Y-74.07
X74.56Y-53.695
X81.91Y-69.654
X81.91Y-71.77
X87.285Y-56.79
T2
X31.398Y-24.162
X31.398Y-26.702
X31.398Y-29.242
X31.398Y-31.782
X48.279Y-44.708
X48.279Y-49.788
X48.279Y-63.758
X48.279Y-68.838
X48.279Y-82.808
X48.279Y-87.888
X67.329Y-44.708
X67.329Y-49.788
X67.329Y-63.758
X67.329Y-68.838
X67.673Y-83.004
X67.673Y-88.084
X74.473Y-20.683
X74.473Y-35.183
X76.973Y-35.183
X79.473Y-20.683
X79.473Y-35.183
X86.379Y-44.708
X86.379Y-49.788
X86.451Y-83.004
X86.451Y-88.084
X86.672Y-63.957
X86.672Y-69.037
T3
X35.15Y-83.185
X35.153Y-64.184
X35.158Y-45.13
X41.5Y-80.645
X41.503Y-61.644
X41.508Y-42.59
X54.199Y-83.234
X54.203Y-45.134
X54.203Y-64.184
X60.549Y-80.694
X60.553Y-42.594
X60.553Y-61.644
X73.249Y-64.186
X73.263Y-45.138
X73.279Y-83.217
X79.599Y-61.646
X79.613Y-42.598
X79.629Y-80.677
T4
X24.466Y-23.277
X24.466Y-104.239
X91.141Y-23.277
X91.141Y-104.239
T3
G00X71.373Y-28.333
M15
G01X71.373Y-27.033
M16
G05
G00X82.573Y-28.333
M15
G01X82.573Y-27.033
M16
G05
M30
