%TF.GenerationSoftware,KiCad,Pcbnew,9.0.1*%
%TF.CreationDate,2025-06-05T14:05:19-05:00*%
%TF.ProjectId,CopyPAD,436f7079-5041-4442-9e6b-696361645f70,rev?*%
%TF.SameCoordinates,Original*%
%TF.FileFunction,Soldermask,Top*%
%TF.FilePolarity,Negative*%
%FSLAX46Y46*%
G04 Gerber Fmt 4.6, Leading zero omitted, Abs format (unit mm)*
G04 Created by KiCad (PCBNEW 9.0.1) date 2025-06-05 14:05:19*
%MOMM*%
%LPD*%
G01*
G04 APERTURE LIST*
%ADD10R,2.000000X2.000000*%
%ADD11C,2.000000*%
%ADD12R,2.000000X3.200000*%
%ADD13O,2.000000X2.000000*%
%ADD14C,6.400000*%
%ADD15C,1.700000*%
%ADD16C,4.000000*%
%ADD17C,2.200000*%
%ADD18R,1.700000X1.700000*%
G04 APERTURE END LIST*
D10*
%TO.C,SW11*%
X74472588Y-35182825D03*
D11*
X79472588Y-35182825D03*
X76972588Y-35182825D03*
D12*
X71372588Y-27682825D03*
X82572588Y-27682825D03*
D11*
X79472588Y-20682825D03*
X74472588Y-20682825D03*
%TD*%
D10*
%TO.C,D6*%
X67328838Y-68837825D03*
D13*
X67328838Y-63757825D03*
%TD*%
D14*
%TO.C,H4*%
X91141338Y-104239075D03*
%TD*%
D10*
%TO.C,D7*%
X86672462Y-69036503D03*
D13*
X86672462Y-63956503D03*
%TD*%
D15*
%TO.C,SW4*%
X33882750Y-66724076D03*
D16*
X38962750Y-66724076D03*
D15*
X44042750Y-66724076D03*
D17*
X41502750Y-61644076D03*
X35152750Y-64184076D03*
%TD*%
D10*
%TO.C,D10*%
X86451075Y-88084167D03*
D13*
X86451075Y-83004167D03*
%TD*%
D10*
%TO.C,D4*%
X86378838Y-49787825D03*
D13*
X86378838Y-44707825D03*
%TD*%
D15*
%TO.C,SW3*%
X71993336Y-47677742D03*
D16*
X77073336Y-47677742D03*
D15*
X82153336Y-47677742D03*
D17*
X79613336Y-42597742D03*
X73263336Y-45137742D03*
%TD*%
D14*
%TO.C,H2*%
X91141338Y-23276575D03*
%TD*%
D10*
%TO.C,D5*%
X48278838Y-68837825D03*
D13*
X48278838Y-63757825D03*
%TD*%
D14*
%TO.C,H3*%
X24466338Y-104239075D03*
%TD*%
D15*
%TO.C,SW5*%
X52932750Y-66724076D03*
D16*
X58012750Y-66724076D03*
D15*
X63092750Y-66724076D03*
D17*
X60552750Y-61644076D03*
X54202750Y-64184076D03*
%TD*%
D14*
%TO.C,H1*%
X24466338Y-23276575D03*
%TD*%
D10*
%TO.C,D8*%
X48278838Y-87887825D03*
D13*
X48278838Y-82807825D03*
%TD*%
D10*
%TO.C,D9*%
X67672957Y-88084167D03*
D13*
X67672957Y-83004167D03*
%TD*%
D10*
%TO.C,D2*%
X48278838Y-49787825D03*
D13*
X48278838Y-44707825D03*
%TD*%
D15*
%TO.C,SW7*%
X33880192Y-85724545D03*
D16*
X38960192Y-85724545D03*
D15*
X44040192Y-85724545D03*
D17*
X41500192Y-80644545D03*
X35150192Y-83184545D03*
%TD*%
D15*
%TO.C,SW1*%
X33887767Y-47670023D03*
D16*
X38967767Y-47670023D03*
D15*
X44047767Y-47670023D03*
D17*
X41507767Y-42590023D03*
X35157767Y-45130023D03*
%TD*%
D15*
%TO.C,SW9*%
X72009327Y-85756568D03*
D16*
X77089327Y-85756568D03*
D15*
X82169327Y-85756568D03*
D17*
X79629327Y-80676568D03*
X73279327Y-83216568D03*
%TD*%
D15*
%TO.C,SW8*%
X52928838Y-85774075D03*
D16*
X58008838Y-85774075D03*
D15*
X63088838Y-85774075D03*
D17*
X60548838Y-80694075D03*
X54198838Y-83234075D03*
%TD*%
D15*
%TO.C,SW2*%
X52932750Y-47674076D03*
D16*
X58012750Y-47674076D03*
D15*
X63092750Y-47674076D03*
D17*
X60552750Y-42594076D03*
X54202750Y-45134076D03*
%TD*%
D10*
%TO.C,D3*%
X67328838Y-49787825D03*
D13*
X67328838Y-44707825D03*
%TD*%
D15*
%TO.C,SW6*%
X71978531Y-66726391D03*
D16*
X77058531Y-66726391D03*
D15*
X82138531Y-66726391D03*
D17*
X79598531Y-61646391D03*
X73248531Y-64186391D03*
%TD*%
D18*
%TO.C,J1*%
X31397807Y-24161975D03*
D15*
X31397807Y-26701975D03*
X31397807Y-29241975D03*
X31397807Y-31781975D03*
%TD*%
M02*
