%TF.GenerationSoftware,KiCad,Pcbnew,9.0.1*%
%TF.CreationDate,2025-06-05T14:05:19-05:00*%
%TF.ProjectId,CopyPAD,436f7079-5041-4442-9e6b-696361645f70,rev?*%
%TF.SameCoordinates,Original*%
%TF.FileFunction,Soldermask,Bot*%
%TF.FilePolarity,Negative*%
%FSLAX46Y46*%
G04 Gerber Fmt 4.6, Leading zero omitted, Abs format (unit mm)*
G04 Created by KiCad (PCBNEW 9.0.1) date 2025-06-05 14:05:19*
%MOMM*%
%LPD*%
G01*
G04 APERTURE LIST*
G04 Aperture macros list*
%AMRoundRect*
0 Rectangle with rounded corners*
0 $1 Rounding radius*
0 $2 $3 $4 $5 $6 $7 $8 $9 X,Y pos of 4 corners*
0 Add a 4 corners polygon primitive as box body*
4,1,4,$2,$3,$4,$5,$6,$7,$8,$9,$2,$3,0*
0 Add four circle primitives for the rounded corners*
1,1,$1+$1,$2,$3*
1,1,$1+$1,$4,$5*
1,1,$1+$1,$6,$7*
1,1,$1+$1,$8,$9*
0 Add four rect primitives between the rounded corners*
20,1,$1+$1,$2,$3,$4,$5,0*
20,1,$1+$1,$4,$5,$6,$7,0*
20,1,$1+$1,$6,$7,$8,$9,0*
20,1,$1+$1,$8,$9,$2,$3,0*%
G04 Aperture macros list end*
%ADD10RoundRect,0.525400X0.900400X0.525400X-0.900400X0.525400X-0.900400X-0.525400X0.900400X-0.525400X0*%
%ADD11RoundRect,0.275000X-0.275000X0.975000X-0.275000X-0.975000X0.275000X-0.975000X0.275000X0.975000X0*%
%ADD12C,1.700000*%
%ADD13R,2.000000X2.000000*%
%ADD14C,2.000000*%
%ADD15R,2.000000X3.200000*%
%ADD16O,2.000000X2.000000*%
%ADD17C,6.400000*%
%ADD18C,4.000000*%
%ADD19C,2.200000*%
%ADD20R,1.700000X1.700000*%
%ADD21R,1.500000X0.820000*%
G04 APERTURE END LIST*
D10*
%TO.C,U1*%
X66003171Y-19185357D03*
X66003171Y-21725357D03*
X66003171Y-24265357D03*
X66003171Y-26805357D03*
X66003171Y-29345357D03*
X66003171Y-31885357D03*
X66003171Y-34425357D03*
X49838171Y-34425357D03*
X49838171Y-31885357D03*
X49838171Y-29345357D03*
X49838171Y-26805357D03*
X49838171Y-24265357D03*
X49838171Y-21725357D03*
X49838171Y-19185357D03*
D11*
X59091171Y-35445357D03*
X56551171Y-35445357D03*
D12*
X59091171Y-18427357D03*
X56551171Y-18427357D03*
X59091171Y-20967357D03*
X56551171Y-20967357D03*
%TD*%
D13*
%TO.C,SW11*%
X74472588Y-35182825D03*
D14*
X79472588Y-35182825D03*
X76972588Y-35182825D03*
D15*
X71372588Y-27682825D03*
X82572588Y-27682825D03*
D14*
X79472588Y-20682825D03*
X74472588Y-20682825D03*
%TD*%
D13*
%TO.C,D6*%
X67328838Y-68837825D03*
D16*
X67328838Y-63757825D03*
%TD*%
D17*
%TO.C,H4*%
X91141338Y-104239075D03*
%TD*%
D13*
%TO.C,D7*%
X86672462Y-69036503D03*
D16*
X86672462Y-63956503D03*
%TD*%
D12*
%TO.C,SW4*%
X33882750Y-66724076D03*
D18*
X38962750Y-66724076D03*
D12*
X44042750Y-66724076D03*
D19*
X41502750Y-61644076D03*
X35152750Y-64184076D03*
%TD*%
D13*
%TO.C,D10*%
X86451075Y-88084167D03*
D16*
X86451075Y-83004167D03*
%TD*%
D13*
%TO.C,D4*%
X86378838Y-49787825D03*
D16*
X86378838Y-44707825D03*
%TD*%
D12*
%TO.C,SW3*%
X71993336Y-47677742D03*
D18*
X77073336Y-47677742D03*
D12*
X82153336Y-47677742D03*
D19*
X79613336Y-42597742D03*
X73263336Y-45137742D03*
%TD*%
D17*
%TO.C,H2*%
X91141338Y-23276575D03*
%TD*%
D13*
%TO.C,D5*%
X48278838Y-68837825D03*
D16*
X48278838Y-63757825D03*
%TD*%
D17*
%TO.C,H3*%
X24466338Y-104239075D03*
%TD*%
D12*
%TO.C,SW5*%
X52932750Y-66724076D03*
D18*
X58012750Y-66724076D03*
D12*
X63092750Y-66724076D03*
D19*
X60552750Y-61644076D03*
X54202750Y-64184076D03*
%TD*%
D17*
%TO.C,H1*%
X24466338Y-23276575D03*
%TD*%
D13*
%TO.C,D8*%
X48278838Y-87887825D03*
D16*
X48278838Y-82807825D03*
%TD*%
D13*
%TO.C,D9*%
X67672957Y-88084167D03*
D16*
X67672957Y-83004167D03*
%TD*%
D13*
%TO.C,D2*%
X48278838Y-49787825D03*
D16*
X48278838Y-44707825D03*
%TD*%
D12*
%TO.C,SW7*%
X33880192Y-85724545D03*
D18*
X38960192Y-85724545D03*
D12*
X44040192Y-85724545D03*
D19*
X41500192Y-80644545D03*
X35150192Y-83184545D03*
%TD*%
D12*
%TO.C,SW1*%
X33887767Y-47670023D03*
D18*
X38967767Y-47670023D03*
D12*
X44047767Y-47670023D03*
D19*
X41507767Y-42590023D03*
X35157767Y-45130023D03*
%TD*%
D12*
%TO.C,SW9*%
X72009327Y-85756568D03*
D18*
X77089327Y-85756568D03*
D12*
X82169327Y-85756568D03*
D19*
X79629327Y-80676568D03*
X73279327Y-83216568D03*
%TD*%
D12*
%TO.C,SW8*%
X52928838Y-85774075D03*
D18*
X58008838Y-85774075D03*
D12*
X63088838Y-85774075D03*
D19*
X60548838Y-80694075D03*
X54198838Y-83234075D03*
%TD*%
D12*
%TO.C,SW2*%
X52932750Y-47674076D03*
D18*
X58012750Y-47674076D03*
D12*
X63092750Y-47674076D03*
D19*
X60552750Y-42594076D03*
X54202750Y-45134076D03*
%TD*%
D13*
%TO.C,D3*%
X67328838Y-49787825D03*
D16*
X67328838Y-44707825D03*
%TD*%
D12*
%TO.C,SW6*%
X71978531Y-66726391D03*
D18*
X77058531Y-66726391D03*
D12*
X82138531Y-66726391D03*
D19*
X79598531Y-61646391D03*
X73248531Y-64186391D03*
%TD*%
D20*
%TO.C,J1*%
X31397807Y-24161975D03*
D12*
X31397807Y-26701975D03*
X31397807Y-29241975D03*
X31397807Y-31781975D03*
%TD*%
D21*
%TO.C,D11*%
X36096907Y-70151575D03*
X36096907Y-71651575D03*
X41696907Y-71651575D03*
X41696907Y-70151575D03*
%TD*%
%TO.C,D16*%
X74483108Y-51101575D03*
X74483108Y-52601575D03*
X80083108Y-52601575D03*
X80083108Y-51101575D03*
%TD*%
%TO.C,D17*%
X74522545Y-70253934D03*
X74522545Y-71753934D03*
X80122545Y-71753934D03*
X80122545Y-70253934D03*
%TD*%
%TO.C,D14*%
X55635088Y-70250021D03*
X55635088Y-71750021D03*
X61235088Y-71750021D03*
X61235088Y-70250021D03*
%TD*%
%TO.C,D12*%
X35953838Y-89201575D03*
X35953838Y-90701575D03*
X41553838Y-90701575D03*
X41553838Y-89201575D03*
%TD*%
%TO.C,D15*%
X55198292Y-89428833D03*
X55198292Y-90928833D03*
X60798292Y-90928833D03*
X60798292Y-89428833D03*
%TD*%
%TO.C,D1*%
X36140392Y-51044794D03*
X36140392Y-52544794D03*
X41740392Y-52544794D03*
X41740392Y-51044794D03*
%TD*%
%TO.C,D13*%
X55368531Y-51044794D03*
X55368531Y-52544794D03*
X60968531Y-52544794D03*
X60968531Y-51044794D03*
%TD*%
%TO.C,D18*%
X74435601Y-89199238D03*
X74435601Y-90699238D03*
X80035601Y-90699238D03*
X80035601Y-89199238D03*
%TD*%
M02*
