%TF.GenerationSoftware,KiCad,Pcbnew,9.0.1*%
%TF.CreationDate,2025-06-05T14:05:19-05:00*%
%TF.ProjectId,CopyPAD,436f7079-5041-4442-9e6b-696361645f70,rev?*%
%TF.SameCoordinates,Original*%
%TF.FileFunction,Legend,Top*%
%TF.FilePolarity,Positive*%
%FSLAX46Y46*%
G04 Gerber Fmt 4.6, Leading zero omitted, Abs format (unit mm)*
G04 Created by KiCad (PCBNEW 9.0.1) date 2025-06-05 14:05:19*
%MOMM*%
%LPD*%
G01*
G04 APERTURE LIST*
%ADD10C,0.100000*%
%ADD11C,0.300000*%
%ADD12C,0.150000*%
%ADD13C,0.000000*%
%ADD14C,0.120000*%
G04 APERTURE END LIST*
D10*
X55358348Y-100265871D02*
X55310729Y-100218252D01*
X55310729Y-100218252D02*
X55215491Y-100075395D01*
X55215491Y-100075395D02*
X55167872Y-99980157D01*
X55167872Y-99980157D02*
X55120253Y-99837300D01*
X55120253Y-99837300D02*
X55072634Y-99599204D01*
X55072634Y-99599204D02*
X55072634Y-99408728D01*
X55072634Y-99408728D02*
X55120253Y-99170633D01*
X55120253Y-99170633D02*
X55167872Y-99027776D01*
X55167872Y-99027776D02*
X55215491Y-98932538D01*
X55215491Y-98932538D02*
X55310729Y-98789680D01*
X55310729Y-98789680D02*
X55358348Y-98742061D01*
X56167872Y-99837300D02*
X56072634Y-99884919D01*
X56072634Y-99884919D02*
X55882158Y-99884919D01*
X55882158Y-99884919D02*
X55786920Y-99837300D01*
X55786920Y-99837300D02*
X55739301Y-99789680D01*
X55739301Y-99789680D02*
X55691682Y-99694442D01*
X55691682Y-99694442D02*
X55691682Y-99408728D01*
X55691682Y-99408728D02*
X55739301Y-99313490D01*
X55739301Y-99313490D02*
X55786920Y-99265871D01*
X55786920Y-99265871D02*
X55882158Y-99218252D01*
X55882158Y-99218252D02*
X56072634Y-99218252D01*
X56072634Y-99218252D02*
X56167872Y-99265871D01*
X56501206Y-100265871D02*
X56548825Y-100218252D01*
X56548825Y-100218252D02*
X56644063Y-100075395D01*
X56644063Y-100075395D02*
X56691682Y-99980157D01*
X56691682Y-99980157D02*
X56739301Y-99837300D01*
X56739301Y-99837300D02*
X56786920Y-99599204D01*
X56786920Y-99599204D02*
X56786920Y-99408728D01*
X56786920Y-99408728D02*
X56739301Y-99170633D01*
X56739301Y-99170633D02*
X56691682Y-99027776D01*
X56691682Y-99027776D02*
X56644063Y-98932538D01*
X56644063Y-98932538D02*
X56548825Y-98789680D01*
X56548825Y-98789680D02*
X56501206Y-98742061D01*
X58548825Y-98932538D02*
X58453587Y-98884919D01*
X58453587Y-98884919D02*
X58310730Y-98884919D01*
X58310730Y-98884919D02*
X58167873Y-98932538D01*
X58167873Y-98932538D02*
X58072635Y-99027776D01*
X58072635Y-99027776D02*
X58025016Y-99123014D01*
X58025016Y-99123014D02*
X57977397Y-99313490D01*
X57977397Y-99313490D02*
X57977397Y-99456347D01*
X57977397Y-99456347D02*
X58025016Y-99646823D01*
X58025016Y-99646823D02*
X58072635Y-99742061D01*
X58072635Y-99742061D02*
X58167873Y-99837300D01*
X58167873Y-99837300D02*
X58310730Y-99884919D01*
X58310730Y-99884919D02*
X58405968Y-99884919D01*
X58405968Y-99884919D02*
X58548825Y-99837300D01*
X58548825Y-99837300D02*
X58596444Y-99789680D01*
X58596444Y-99789680D02*
X58596444Y-99456347D01*
X58596444Y-99456347D02*
X58405968Y-99456347D01*
X59453587Y-99884919D02*
X59453587Y-99361109D01*
X59453587Y-99361109D02*
X59405968Y-99265871D01*
X59405968Y-99265871D02*
X59310730Y-99218252D01*
X59310730Y-99218252D02*
X59120254Y-99218252D01*
X59120254Y-99218252D02*
X59025016Y-99265871D01*
X59453587Y-99837300D02*
X59358349Y-99884919D01*
X59358349Y-99884919D02*
X59120254Y-99884919D01*
X59120254Y-99884919D02*
X59025016Y-99837300D01*
X59025016Y-99837300D02*
X58977397Y-99742061D01*
X58977397Y-99742061D02*
X58977397Y-99646823D01*
X58977397Y-99646823D02*
X59025016Y-99551585D01*
X59025016Y-99551585D02*
X59120254Y-99503966D01*
X59120254Y-99503966D02*
X59358349Y-99503966D01*
X59358349Y-99503966D02*
X59453587Y-99456347D01*
X59834540Y-99218252D02*
X60072635Y-99884919D01*
X60072635Y-99884919D02*
X60310730Y-99218252D01*
X60691683Y-99884919D02*
X60691683Y-99218252D01*
X60691683Y-98884919D02*
X60644064Y-98932538D01*
X60644064Y-98932538D02*
X60691683Y-98980157D01*
X60691683Y-98980157D02*
X60739302Y-98932538D01*
X60739302Y-98932538D02*
X60691683Y-98884919D01*
X60691683Y-98884919D02*
X60691683Y-98980157D01*
X61167873Y-99218252D02*
X61167873Y-99884919D01*
X61167873Y-99313490D02*
X61215492Y-99265871D01*
X61215492Y-99265871D02*
X61310730Y-99218252D01*
X61310730Y-99218252D02*
X61453587Y-99218252D01*
X61453587Y-99218252D02*
X61548825Y-99265871D01*
X61548825Y-99265871D02*
X61596444Y-99361109D01*
X61596444Y-99361109D02*
X61596444Y-99884919D01*
X63405968Y-99884919D02*
X63072635Y-99408728D01*
X62834540Y-99884919D02*
X62834540Y-98884919D01*
X62834540Y-98884919D02*
X63215492Y-98884919D01*
X63215492Y-98884919D02*
X63310730Y-98932538D01*
X63310730Y-98932538D02*
X63358349Y-98980157D01*
X63358349Y-98980157D02*
X63405968Y-99075395D01*
X63405968Y-99075395D02*
X63405968Y-99218252D01*
X63405968Y-99218252D02*
X63358349Y-99313490D01*
X63358349Y-99313490D02*
X63310730Y-99361109D01*
X63310730Y-99361109D02*
X63215492Y-99408728D01*
X63215492Y-99408728D02*
X62834540Y-99408728D01*
X64263111Y-99884919D02*
X64263111Y-99361109D01*
X64263111Y-99361109D02*
X64215492Y-99265871D01*
X64215492Y-99265871D02*
X64120254Y-99218252D01*
X64120254Y-99218252D02*
X63929778Y-99218252D01*
X63929778Y-99218252D02*
X63834540Y-99265871D01*
X64263111Y-99837300D02*
X64167873Y-99884919D01*
X64167873Y-99884919D02*
X63929778Y-99884919D01*
X63929778Y-99884919D02*
X63834540Y-99837300D01*
X63834540Y-99837300D02*
X63786921Y-99742061D01*
X63786921Y-99742061D02*
X63786921Y-99646823D01*
X63786921Y-99646823D02*
X63834540Y-99551585D01*
X63834540Y-99551585D02*
X63929778Y-99503966D01*
X63929778Y-99503966D02*
X64167873Y-99503966D01*
X64167873Y-99503966D02*
X64263111Y-99456347D01*
X64739302Y-99218252D02*
X64739302Y-100218252D01*
X64739302Y-99265871D02*
X64834540Y-99218252D01*
X64834540Y-99218252D02*
X65025016Y-99218252D01*
X65025016Y-99218252D02*
X65120254Y-99265871D01*
X65120254Y-99265871D02*
X65167873Y-99313490D01*
X65167873Y-99313490D02*
X65215492Y-99408728D01*
X65215492Y-99408728D02*
X65215492Y-99694442D01*
X65215492Y-99694442D02*
X65167873Y-99789680D01*
X65167873Y-99789680D02*
X65120254Y-99837300D01*
X65120254Y-99837300D02*
X65025016Y-99884919D01*
X65025016Y-99884919D02*
X64834540Y-99884919D01*
X64834540Y-99884919D02*
X64739302Y-99837300D01*
X65644064Y-99218252D02*
X65644064Y-100218252D01*
X65644064Y-99265871D02*
X65739302Y-99218252D01*
X65739302Y-99218252D02*
X65929778Y-99218252D01*
X65929778Y-99218252D02*
X66025016Y-99265871D01*
X66025016Y-99265871D02*
X66072635Y-99313490D01*
X66072635Y-99313490D02*
X66120254Y-99408728D01*
X66120254Y-99408728D02*
X66120254Y-99694442D01*
X66120254Y-99694442D02*
X66072635Y-99789680D01*
X66072635Y-99789680D02*
X66025016Y-99837300D01*
X66025016Y-99837300D02*
X65929778Y-99884919D01*
X65929778Y-99884919D02*
X65739302Y-99884919D01*
X65739302Y-99884919D02*
X65644064Y-99837300D01*
X66691683Y-99884919D02*
X66596445Y-99837300D01*
X66596445Y-99837300D02*
X66548826Y-99742061D01*
X66548826Y-99742061D02*
X66548826Y-98884919D01*
X67453588Y-99837300D02*
X67358350Y-99884919D01*
X67358350Y-99884919D02*
X67167874Y-99884919D01*
X67167874Y-99884919D02*
X67072636Y-99837300D01*
X67072636Y-99837300D02*
X67025017Y-99742061D01*
X67025017Y-99742061D02*
X67025017Y-99361109D01*
X67025017Y-99361109D02*
X67072636Y-99265871D01*
X67072636Y-99265871D02*
X67167874Y-99218252D01*
X67167874Y-99218252D02*
X67358350Y-99218252D01*
X67358350Y-99218252D02*
X67453588Y-99265871D01*
X67453588Y-99265871D02*
X67501207Y-99361109D01*
X67501207Y-99361109D02*
X67501207Y-99456347D01*
X67501207Y-99456347D02*
X67025017Y-99551585D01*
X67834541Y-99218252D02*
X68072636Y-99884919D01*
X68310731Y-99218252D02*
X68072636Y-99884919D01*
X68072636Y-99884919D02*
X67977398Y-100123014D01*
X67977398Y-100123014D02*
X67929779Y-100170633D01*
X67929779Y-100170633D02*
X67834541Y-100218252D01*
X69072636Y-99837300D02*
X68977398Y-99884919D01*
X68977398Y-99884919D02*
X68786922Y-99884919D01*
X68786922Y-99884919D02*
X68691684Y-99837300D01*
X68691684Y-99837300D02*
X68644065Y-99742061D01*
X68644065Y-99742061D02*
X68644065Y-99361109D01*
X68644065Y-99361109D02*
X68691684Y-99265871D01*
X68691684Y-99265871D02*
X68786922Y-99218252D01*
X68786922Y-99218252D02*
X68977398Y-99218252D01*
X68977398Y-99218252D02*
X69072636Y-99265871D01*
X69072636Y-99265871D02*
X69120255Y-99361109D01*
X69120255Y-99361109D02*
X69120255Y-99456347D01*
X69120255Y-99456347D02*
X68644065Y-99551585D01*
X70263113Y-98980157D02*
X70310732Y-98932538D01*
X70310732Y-98932538D02*
X70405970Y-98884919D01*
X70405970Y-98884919D02*
X70644065Y-98884919D01*
X70644065Y-98884919D02*
X70739303Y-98932538D01*
X70739303Y-98932538D02*
X70786922Y-98980157D01*
X70786922Y-98980157D02*
X70834541Y-99075395D01*
X70834541Y-99075395D02*
X70834541Y-99170633D01*
X70834541Y-99170633D02*
X70786922Y-99313490D01*
X70786922Y-99313490D02*
X70215494Y-99884919D01*
X70215494Y-99884919D02*
X70834541Y-99884919D01*
X71453589Y-98884919D02*
X71548827Y-98884919D01*
X71548827Y-98884919D02*
X71644065Y-98932538D01*
X71644065Y-98932538D02*
X71691684Y-98980157D01*
X71691684Y-98980157D02*
X71739303Y-99075395D01*
X71739303Y-99075395D02*
X71786922Y-99265871D01*
X71786922Y-99265871D02*
X71786922Y-99503966D01*
X71786922Y-99503966D02*
X71739303Y-99694442D01*
X71739303Y-99694442D02*
X71691684Y-99789680D01*
X71691684Y-99789680D02*
X71644065Y-99837300D01*
X71644065Y-99837300D02*
X71548827Y-99884919D01*
X71548827Y-99884919D02*
X71453589Y-99884919D01*
X71453589Y-99884919D02*
X71358351Y-99837300D01*
X71358351Y-99837300D02*
X71310732Y-99789680D01*
X71310732Y-99789680D02*
X71263113Y-99694442D01*
X71263113Y-99694442D02*
X71215494Y-99503966D01*
X71215494Y-99503966D02*
X71215494Y-99265871D01*
X71215494Y-99265871D02*
X71263113Y-99075395D01*
X71263113Y-99075395D02*
X71310732Y-98980157D01*
X71310732Y-98980157D02*
X71358351Y-98932538D01*
X71358351Y-98932538D02*
X71453589Y-98884919D01*
X72167875Y-98980157D02*
X72215494Y-98932538D01*
X72215494Y-98932538D02*
X72310732Y-98884919D01*
X72310732Y-98884919D02*
X72548827Y-98884919D01*
X72548827Y-98884919D02*
X72644065Y-98932538D01*
X72644065Y-98932538D02*
X72691684Y-98980157D01*
X72691684Y-98980157D02*
X72739303Y-99075395D01*
X72739303Y-99075395D02*
X72739303Y-99170633D01*
X72739303Y-99170633D02*
X72691684Y-99313490D01*
X72691684Y-99313490D02*
X72120256Y-99884919D01*
X72120256Y-99884919D02*
X72739303Y-99884919D01*
X73644065Y-98884919D02*
X73167875Y-98884919D01*
X73167875Y-98884919D02*
X73120256Y-99361109D01*
X73120256Y-99361109D02*
X73167875Y-99313490D01*
X73167875Y-99313490D02*
X73263113Y-99265871D01*
X73263113Y-99265871D02*
X73501208Y-99265871D01*
X73501208Y-99265871D02*
X73596446Y-99313490D01*
X73596446Y-99313490D02*
X73644065Y-99361109D01*
X73644065Y-99361109D02*
X73691684Y-99456347D01*
X73691684Y-99456347D02*
X73691684Y-99694442D01*
X73691684Y-99694442D02*
X73644065Y-99789680D01*
X73644065Y-99789680D02*
X73596446Y-99837300D01*
X73596446Y-99837300D02*
X73501208Y-99884919D01*
X73501208Y-99884919D02*
X73263113Y-99884919D01*
X73263113Y-99884919D02*
X73167875Y-99837300D01*
X73167875Y-99837300D02*
X73120256Y-99789680D01*
X55072634Y-97503669D02*
X55072634Y-96503669D01*
X55072634Y-96503669D02*
X55453586Y-96503669D01*
X55453586Y-96503669D02*
X55548824Y-96551288D01*
X55548824Y-96551288D02*
X55596443Y-96598907D01*
X55596443Y-96598907D02*
X55644062Y-96694145D01*
X55644062Y-96694145D02*
X55644062Y-96837002D01*
X55644062Y-96837002D02*
X55596443Y-96932240D01*
X55596443Y-96932240D02*
X55548824Y-96979859D01*
X55548824Y-96979859D02*
X55453586Y-97027478D01*
X55453586Y-97027478D02*
X55072634Y-97027478D01*
X56644062Y-97503669D02*
X56310729Y-97027478D01*
X56072634Y-97503669D02*
X56072634Y-96503669D01*
X56072634Y-96503669D02*
X56453586Y-96503669D01*
X56453586Y-96503669D02*
X56548824Y-96551288D01*
X56548824Y-96551288D02*
X56596443Y-96598907D01*
X56596443Y-96598907D02*
X56644062Y-96694145D01*
X56644062Y-96694145D02*
X56644062Y-96837002D01*
X56644062Y-96837002D02*
X56596443Y-96932240D01*
X56596443Y-96932240D02*
X56548824Y-96979859D01*
X56548824Y-96979859D02*
X56453586Y-97027478D01*
X56453586Y-97027478D02*
X56072634Y-97027478D01*
X57263110Y-96503669D02*
X57453586Y-96503669D01*
X57453586Y-96503669D02*
X57548824Y-96551288D01*
X57548824Y-96551288D02*
X57644062Y-96646526D01*
X57644062Y-96646526D02*
X57691681Y-96837002D01*
X57691681Y-96837002D02*
X57691681Y-97170335D01*
X57691681Y-97170335D02*
X57644062Y-97360811D01*
X57644062Y-97360811D02*
X57548824Y-97456050D01*
X57548824Y-97456050D02*
X57453586Y-97503669D01*
X57453586Y-97503669D02*
X57263110Y-97503669D01*
X57263110Y-97503669D02*
X57167872Y-97456050D01*
X57167872Y-97456050D02*
X57072634Y-97360811D01*
X57072634Y-97360811D02*
X57025015Y-97170335D01*
X57025015Y-97170335D02*
X57025015Y-96837002D01*
X57025015Y-96837002D02*
X57072634Y-96646526D01*
X57072634Y-96646526D02*
X57167872Y-96551288D01*
X57167872Y-96551288D02*
X57263110Y-96503669D01*
X58644062Y-96551288D02*
X58548824Y-96503669D01*
X58548824Y-96503669D02*
X58405967Y-96503669D01*
X58405967Y-96503669D02*
X58263110Y-96551288D01*
X58263110Y-96551288D02*
X58167872Y-96646526D01*
X58167872Y-96646526D02*
X58120253Y-96741764D01*
X58120253Y-96741764D02*
X58072634Y-96932240D01*
X58072634Y-96932240D02*
X58072634Y-97075097D01*
X58072634Y-97075097D02*
X58120253Y-97265573D01*
X58120253Y-97265573D02*
X58167872Y-97360811D01*
X58167872Y-97360811D02*
X58263110Y-97456050D01*
X58263110Y-97456050D02*
X58405967Y-97503669D01*
X58405967Y-97503669D02*
X58501205Y-97503669D01*
X58501205Y-97503669D02*
X58644062Y-97456050D01*
X58644062Y-97456050D02*
X58691681Y-97408430D01*
X58691681Y-97408430D02*
X58691681Y-97075097D01*
X58691681Y-97075097D02*
X58501205Y-97075097D01*
X59691681Y-97503669D02*
X59358348Y-97027478D01*
X59120253Y-97503669D02*
X59120253Y-96503669D01*
X59120253Y-96503669D02*
X59501205Y-96503669D01*
X59501205Y-96503669D02*
X59596443Y-96551288D01*
X59596443Y-96551288D02*
X59644062Y-96598907D01*
X59644062Y-96598907D02*
X59691681Y-96694145D01*
X59691681Y-96694145D02*
X59691681Y-96837002D01*
X59691681Y-96837002D02*
X59644062Y-96932240D01*
X59644062Y-96932240D02*
X59596443Y-96979859D01*
X59596443Y-96979859D02*
X59501205Y-97027478D01*
X59501205Y-97027478D02*
X59120253Y-97027478D01*
X60072634Y-97217954D02*
X60548824Y-97217954D01*
X59977396Y-97503669D02*
X60310729Y-96503669D01*
X60310729Y-96503669D02*
X60644062Y-97503669D01*
X60977396Y-97503669D02*
X60977396Y-96503669D01*
X60977396Y-96503669D02*
X61310729Y-97217954D01*
X61310729Y-97217954D02*
X61644062Y-96503669D01*
X61644062Y-96503669D02*
X61644062Y-97503669D01*
X62120253Y-96979859D02*
X62453586Y-96979859D01*
X62596443Y-97503669D02*
X62120253Y-97503669D01*
X62120253Y-97503669D02*
X62120253Y-96503669D01*
X62120253Y-96503669D02*
X62596443Y-96503669D01*
X63596443Y-97503669D02*
X63263110Y-97027478D01*
X63025015Y-97503669D02*
X63025015Y-96503669D01*
X63025015Y-96503669D02*
X63405967Y-96503669D01*
X63405967Y-96503669D02*
X63501205Y-96551288D01*
X63501205Y-96551288D02*
X63548824Y-96598907D01*
X63548824Y-96598907D02*
X63596443Y-96694145D01*
X63596443Y-96694145D02*
X63596443Y-96837002D01*
X63596443Y-96837002D02*
X63548824Y-96932240D01*
X63548824Y-96932240D02*
X63501205Y-96979859D01*
X63501205Y-96979859D02*
X63405967Y-97027478D01*
X63405967Y-97027478D02*
X63025015Y-97027478D01*
X64786920Y-97503669D02*
X64786920Y-96503669D01*
X64786920Y-96503669D02*
X65167872Y-96503669D01*
X65167872Y-96503669D02*
X65263110Y-96551288D01*
X65263110Y-96551288D02*
X65310729Y-96598907D01*
X65310729Y-96598907D02*
X65358348Y-96694145D01*
X65358348Y-96694145D02*
X65358348Y-96837002D01*
X65358348Y-96837002D02*
X65310729Y-96932240D01*
X65310729Y-96932240D02*
X65263110Y-96979859D01*
X65263110Y-96979859D02*
X65167872Y-97027478D01*
X65167872Y-97027478D02*
X64786920Y-97027478D01*
X65739301Y-97217954D02*
X66215491Y-97217954D01*
X65644063Y-97503669D02*
X65977396Y-96503669D01*
X65977396Y-96503669D02*
X66310729Y-97503669D01*
X66644063Y-97503669D02*
X66644063Y-96503669D01*
X66644063Y-96503669D02*
X66882158Y-96503669D01*
X66882158Y-96503669D02*
X67025015Y-96551288D01*
X67025015Y-96551288D02*
X67120253Y-96646526D01*
X67120253Y-96646526D02*
X67167872Y-96741764D01*
X67167872Y-96741764D02*
X67215491Y-96932240D01*
X67215491Y-96932240D02*
X67215491Y-97075097D01*
X67215491Y-97075097D02*
X67167872Y-97265573D01*
X67167872Y-97265573D02*
X67120253Y-97360811D01*
X67120253Y-97360811D02*
X67025015Y-97456050D01*
X67025015Y-97456050D02*
X66882158Y-97503669D01*
X66882158Y-97503669D02*
X66644063Y-97503669D01*
X186041384Y-190372419D02*
X186041384Y-189372419D01*
X186041384Y-189372419D02*
X186422336Y-189372419D01*
X186422336Y-189372419D02*
X186517574Y-189420038D01*
X186517574Y-189420038D02*
X186565193Y-189467657D01*
X186565193Y-189467657D02*
X186612812Y-189562895D01*
X186612812Y-189562895D02*
X186612812Y-189705752D01*
X186612812Y-189705752D02*
X186565193Y-189800990D01*
X186565193Y-189800990D02*
X186517574Y-189848609D01*
X186517574Y-189848609D02*
X186422336Y-189896228D01*
X186422336Y-189896228D02*
X186041384Y-189896228D01*
X187612812Y-190372419D02*
X187279479Y-189896228D01*
X187041384Y-190372419D02*
X187041384Y-189372419D01*
X187041384Y-189372419D02*
X187422336Y-189372419D01*
X187422336Y-189372419D02*
X187517574Y-189420038D01*
X187517574Y-189420038D02*
X187565193Y-189467657D01*
X187565193Y-189467657D02*
X187612812Y-189562895D01*
X187612812Y-189562895D02*
X187612812Y-189705752D01*
X187612812Y-189705752D02*
X187565193Y-189800990D01*
X187565193Y-189800990D02*
X187517574Y-189848609D01*
X187517574Y-189848609D02*
X187422336Y-189896228D01*
X187422336Y-189896228D02*
X187041384Y-189896228D01*
X188231860Y-189372419D02*
X188422336Y-189372419D01*
X188422336Y-189372419D02*
X188517574Y-189420038D01*
X188517574Y-189420038D02*
X188612812Y-189515276D01*
X188612812Y-189515276D02*
X188660431Y-189705752D01*
X188660431Y-189705752D02*
X188660431Y-190039085D01*
X188660431Y-190039085D02*
X188612812Y-190229561D01*
X188612812Y-190229561D02*
X188517574Y-190324800D01*
X188517574Y-190324800D02*
X188422336Y-190372419D01*
X188422336Y-190372419D02*
X188231860Y-190372419D01*
X188231860Y-190372419D02*
X188136622Y-190324800D01*
X188136622Y-190324800D02*
X188041384Y-190229561D01*
X188041384Y-190229561D02*
X187993765Y-190039085D01*
X187993765Y-190039085D02*
X187993765Y-189705752D01*
X187993765Y-189705752D02*
X188041384Y-189515276D01*
X188041384Y-189515276D02*
X188136622Y-189420038D01*
X188136622Y-189420038D02*
X188231860Y-189372419D01*
X189089003Y-190372419D02*
X189089003Y-189372419D01*
X189089003Y-189372419D02*
X189469955Y-189372419D01*
X189469955Y-189372419D02*
X189565193Y-189420038D01*
X189565193Y-189420038D02*
X189612812Y-189467657D01*
X189612812Y-189467657D02*
X189660431Y-189562895D01*
X189660431Y-189562895D02*
X189660431Y-189705752D01*
X189660431Y-189705752D02*
X189612812Y-189800990D01*
X189612812Y-189800990D02*
X189565193Y-189848609D01*
X189565193Y-189848609D02*
X189469955Y-189896228D01*
X189469955Y-189896228D02*
X189089003Y-189896228D01*
X190041384Y-190086704D02*
X190517574Y-190086704D01*
X189946146Y-190372419D02*
X190279479Y-189372419D01*
X190279479Y-189372419D02*
X190612812Y-190372419D01*
X190946146Y-190372419D02*
X190946146Y-189372419D01*
X190946146Y-189372419D02*
X191184241Y-189372419D01*
X191184241Y-189372419D02*
X191327098Y-189420038D01*
X191327098Y-189420038D02*
X191422336Y-189515276D01*
X191422336Y-189515276D02*
X191469955Y-189610514D01*
X191469955Y-189610514D02*
X191517574Y-189800990D01*
X191517574Y-189800990D02*
X191517574Y-189943847D01*
X191517574Y-189943847D02*
X191469955Y-190134323D01*
X191469955Y-190134323D02*
X191422336Y-190229561D01*
X191422336Y-190229561D02*
X191327098Y-190324800D01*
X191327098Y-190324800D02*
X191184241Y-190372419D01*
X191184241Y-190372419D02*
X190946146Y-190372419D01*
D11*
X36778572Y-89737257D02*
X36635715Y-89665828D01*
X36635715Y-89665828D02*
X36421429Y-89665828D01*
X36421429Y-89665828D02*
X36207143Y-89737257D01*
X36207143Y-89737257D02*
X36064286Y-89880114D01*
X36064286Y-89880114D02*
X35992857Y-90022971D01*
X35992857Y-90022971D02*
X35921429Y-90308685D01*
X35921429Y-90308685D02*
X35921429Y-90522971D01*
X35921429Y-90522971D02*
X35992857Y-90808685D01*
X35992857Y-90808685D02*
X36064286Y-90951542D01*
X36064286Y-90951542D02*
X36207143Y-91094400D01*
X36207143Y-91094400D02*
X36421429Y-91165828D01*
X36421429Y-91165828D02*
X36564286Y-91165828D01*
X36564286Y-91165828D02*
X36778572Y-91094400D01*
X36778572Y-91094400D02*
X36850000Y-91022971D01*
X36850000Y-91022971D02*
X36850000Y-90522971D01*
X36850000Y-90522971D02*
X36564286Y-90522971D01*
X37707143Y-89665828D02*
X37707143Y-90022971D01*
X37350000Y-89880114D02*
X37707143Y-90022971D01*
X37707143Y-90022971D02*
X38064286Y-89880114D01*
X37492857Y-90308685D02*
X37707143Y-90022971D01*
X37707143Y-90022971D02*
X37921429Y-90308685D01*
X38850000Y-89665828D02*
X38850000Y-90022971D01*
X38492857Y-89880114D02*
X38850000Y-90022971D01*
X38850000Y-90022971D02*
X39207143Y-89880114D01*
X38635714Y-90308685D02*
X38850000Y-90022971D01*
X38850000Y-90022971D02*
X39064286Y-90308685D01*
X39992857Y-89665828D02*
X39992857Y-90022971D01*
X39635714Y-89880114D02*
X39992857Y-90022971D01*
X39992857Y-90022971D02*
X40350000Y-89880114D01*
X39778571Y-90308685D02*
X39992857Y-90022971D01*
X39992857Y-90022971D02*
X40207143Y-90308685D01*
D12*
X70179788Y-34192348D02*
X70227407Y-34049491D01*
X70227407Y-34049491D02*
X70227407Y-33811396D01*
X70227407Y-33811396D02*
X70179788Y-33716158D01*
X70179788Y-33716158D02*
X70132168Y-33668539D01*
X70132168Y-33668539D02*
X70036930Y-33620920D01*
X70036930Y-33620920D02*
X69941692Y-33620920D01*
X69941692Y-33620920D02*
X69846454Y-33668539D01*
X69846454Y-33668539D02*
X69798835Y-33716158D01*
X69798835Y-33716158D02*
X69751216Y-33811396D01*
X69751216Y-33811396D02*
X69703597Y-34001872D01*
X69703597Y-34001872D02*
X69655978Y-34097110D01*
X69655978Y-34097110D02*
X69608359Y-34144729D01*
X69608359Y-34144729D02*
X69513121Y-34192348D01*
X69513121Y-34192348D02*
X69417883Y-34192348D01*
X69417883Y-34192348D02*
X69322645Y-34144729D01*
X69322645Y-34144729D02*
X69275026Y-34097110D01*
X69275026Y-34097110D02*
X69227407Y-34001872D01*
X69227407Y-34001872D02*
X69227407Y-33763777D01*
X69227407Y-33763777D02*
X69275026Y-33620920D01*
X69227407Y-33287586D02*
X70227407Y-33049491D01*
X70227407Y-33049491D02*
X69513121Y-32859015D01*
X69513121Y-32859015D02*
X70227407Y-32668539D01*
X70227407Y-32668539D02*
X69227407Y-32430444D01*
X70227407Y-31525682D02*
X70227407Y-32097110D01*
X70227407Y-31811396D02*
X69227407Y-31811396D01*
X69227407Y-31811396D02*
X69370264Y-31906634D01*
X69370264Y-31906634D02*
X69465502Y-32001872D01*
X69465502Y-32001872D02*
X69513121Y-32097110D01*
X70227407Y-30573301D02*
X70227407Y-31144729D01*
X70227407Y-30859015D02*
X69227407Y-30859015D01*
X69227407Y-30859015D02*
X69370264Y-30954253D01*
X69370264Y-30954253D02*
X69465502Y-31049491D01*
X69465502Y-31049491D02*
X69513121Y-31144729D01*
X37629417Y-59257276D02*
X37772274Y-59304895D01*
X37772274Y-59304895D02*
X38010369Y-59304895D01*
X38010369Y-59304895D02*
X38105607Y-59257276D01*
X38105607Y-59257276D02*
X38153226Y-59209656D01*
X38153226Y-59209656D02*
X38200845Y-59114418D01*
X38200845Y-59114418D02*
X38200845Y-59019180D01*
X38200845Y-59019180D02*
X38153226Y-58923942D01*
X38153226Y-58923942D02*
X38105607Y-58876323D01*
X38105607Y-58876323D02*
X38010369Y-58828704D01*
X38010369Y-58828704D02*
X37819893Y-58781085D01*
X37819893Y-58781085D02*
X37724655Y-58733466D01*
X37724655Y-58733466D02*
X37677036Y-58685847D01*
X37677036Y-58685847D02*
X37629417Y-58590609D01*
X37629417Y-58590609D02*
X37629417Y-58495371D01*
X37629417Y-58495371D02*
X37677036Y-58400133D01*
X37677036Y-58400133D02*
X37724655Y-58352514D01*
X37724655Y-58352514D02*
X37819893Y-58304895D01*
X37819893Y-58304895D02*
X38057988Y-58304895D01*
X38057988Y-58304895D02*
X38200845Y-58352514D01*
X38534179Y-58304895D02*
X38772274Y-59304895D01*
X38772274Y-59304895D02*
X38962750Y-58590609D01*
X38962750Y-58590609D02*
X39153226Y-59304895D01*
X39153226Y-59304895D02*
X39391322Y-58304895D01*
X40200845Y-58638228D02*
X40200845Y-59304895D01*
X39962750Y-58257276D02*
X39724655Y-58971561D01*
X39724655Y-58971561D02*
X40343702Y-58971561D01*
X75740003Y-40210942D02*
X75882860Y-40258561D01*
X75882860Y-40258561D02*
X76120955Y-40258561D01*
X76120955Y-40258561D02*
X76216193Y-40210942D01*
X76216193Y-40210942D02*
X76263812Y-40163322D01*
X76263812Y-40163322D02*
X76311431Y-40068084D01*
X76311431Y-40068084D02*
X76311431Y-39972846D01*
X76311431Y-39972846D02*
X76263812Y-39877608D01*
X76263812Y-39877608D02*
X76216193Y-39829989D01*
X76216193Y-39829989D02*
X76120955Y-39782370D01*
X76120955Y-39782370D02*
X75930479Y-39734751D01*
X75930479Y-39734751D02*
X75835241Y-39687132D01*
X75835241Y-39687132D02*
X75787622Y-39639513D01*
X75787622Y-39639513D02*
X75740003Y-39544275D01*
X75740003Y-39544275D02*
X75740003Y-39449037D01*
X75740003Y-39449037D02*
X75787622Y-39353799D01*
X75787622Y-39353799D02*
X75835241Y-39306180D01*
X75835241Y-39306180D02*
X75930479Y-39258561D01*
X75930479Y-39258561D02*
X76168574Y-39258561D01*
X76168574Y-39258561D02*
X76311431Y-39306180D01*
X76644765Y-39258561D02*
X76882860Y-40258561D01*
X76882860Y-40258561D02*
X77073336Y-39544275D01*
X77073336Y-39544275D02*
X77263812Y-40258561D01*
X77263812Y-40258561D02*
X77501908Y-39258561D01*
X77787622Y-39258561D02*
X78406669Y-39258561D01*
X78406669Y-39258561D02*
X78073336Y-39639513D01*
X78073336Y-39639513D02*
X78216193Y-39639513D01*
X78216193Y-39639513D02*
X78311431Y-39687132D01*
X78311431Y-39687132D02*
X78359050Y-39734751D01*
X78359050Y-39734751D02*
X78406669Y-39829989D01*
X78406669Y-39829989D02*
X78406669Y-40068084D01*
X78406669Y-40068084D02*
X78359050Y-40163322D01*
X78359050Y-40163322D02*
X78311431Y-40210942D01*
X78311431Y-40210942D02*
X78216193Y-40258561D01*
X78216193Y-40258561D02*
X77930479Y-40258561D01*
X77930479Y-40258561D02*
X77835241Y-40210942D01*
X77835241Y-40210942D02*
X77787622Y-40163322D01*
X56679417Y-59257276D02*
X56822274Y-59304895D01*
X56822274Y-59304895D02*
X57060369Y-59304895D01*
X57060369Y-59304895D02*
X57155607Y-59257276D01*
X57155607Y-59257276D02*
X57203226Y-59209656D01*
X57203226Y-59209656D02*
X57250845Y-59114418D01*
X57250845Y-59114418D02*
X57250845Y-59019180D01*
X57250845Y-59019180D02*
X57203226Y-58923942D01*
X57203226Y-58923942D02*
X57155607Y-58876323D01*
X57155607Y-58876323D02*
X57060369Y-58828704D01*
X57060369Y-58828704D02*
X56869893Y-58781085D01*
X56869893Y-58781085D02*
X56774655Y-58733466D01*
X56774655Y-58733466D02*
X56727036Y-58685847D01*
X56727036Y-58685847D02*
X56679417Y-58590609D01*
X56679417Y-58590609D02*
X56679417Y-58495371D01*
X56679417Y-58495371D02*
X56727036Y-58400133D01*
X56727036Y-58400133D02*
X56774655Y-58352514D01*
X56774655Y-58352514D02*
X56869893Y-58304895D01*
X56869893Y-58304895D02*
X57107988Y-58304895D01*
X57107988Y-58304895D02*
X57250845Y-58352514D01*
X57584179Y-58304895D02*
X57822274Y-59304895D01*
X57822274Y-59304895D02*
X58012750Y-58590609D01*
X58012750Y-58590609D02*
X58203226Y-59304895D01*
X58203226Y-59304895D02*
X58441322Y-58304895D01*
X59298464Y-58304895D02*
X58822274Y-58304895D01*
X58822274Y-58304895D02*
X58774655Y-58781085D01*
X58774655Y-58781085D02*
X58822274Y-58733466D01*
X58822274Y-58733466D02*
X58917512Y-58685847D01*
X58917512Y-58685847D02*
X59155607Y-58685847D01*
X59155607Y-58685847D02*
X59250845Y-58733466D01*
X59250845Y-58733466D02*
X59298464Y-58781085D01*
X59298464Y-58781085D02*
X59346083Y-58876323D01*
X59346083Y-58876323D02*
X59346083Y-59114418D01*
X59346083Y-59114418D02*
X59298464Y-59209656D01*
X59298464Y-59209656D02*
X59250845Y-59257276D01*
X59250845Y-59257276D02*
X59155607Y-59304895D01*
X59155607Y-59304895D02*
X58917512Y-59304895D01*
X58917512Y-59304895D02*
X58822274Y-59257276D01*
X58822274Y-59257276D02*
X58774655Y-59209656D01*
X37626859Y-78257745D02*
X37769716Y-78305364D01*
X37769716Y-78305364D02*
X38007811Y-78305364D01*
X38007811Y-78305364D02*
X38103049Y-78257745D01*
X38103049Y-78257745D02*
X38150668Y-78210125D01*
X38150668Y-78210125D02*
X38198287Y-78114887D01*
X38198287Y-78114887D02*
X38198287Y-78019649D01*
X38198287Y-78019649D02*
X38150668Y-77924411D01*
X38150668Y-77924411D02*
X38103049Y-77876792D01*
X38103049Y-77876792D02*
X38007811Y-77829173D01*
X38007811Y-77829173D02*
X37817335Y-77781554D01*
X37817335Y-77781554D02*
X37722097Y-77733935D01*
X37722097Y-77733935D02*
X37674478Y-77686316D01*
X37674478Y-77686316D02*
X37626859Y-77591078D01*
X37626859Y-77591078D02*
X37626859Y-77495840D01*
X37626859Y-77495840D02*
X37674478Y-77400602D01*
X37674478Y-77400602D02*
X37722097Y-77352983D01*
X37722097Y-77352983D02*
X37817335Y-77305364D01*
X37817335Y-77305364D02*
X38055430Y-77305364D01*
X38055430Y-77305364D02*
X38198287Y-77352983D01*
X38531621Y-77305364D02*
X38769716Y-78305364D01*
X38769716Y-78305364D02*
X38960192Y-77591078D01*
X38960192Y-77591078D02*
X39150668Y-78305364D01*
X39150668Y-78305364D02*
X39388764Y-77305364D01*
X39674478Y-77305364D02*
X40341144Y-77305364D01*
X40341144Y-77305364D02*
X39912573Y-78305364D01*
X37470999Y-40273039D02*
X37613856Y-40320658D01*
X37613856Y-40320658D02*
X37851951Y-40320658D01*
X37851951Y-40320658D02*
X37947189Y-40273039D01*
X37947189Y-40273039D02*
X37994808Y-40225419D01*
X37994808Y-40225419D02*
X38042427Y-40130181D01*
X38042427Y-40130181D02*
X38042427Y-40034943D01*
X38042427Y-40034943D02*
X37994808Y-39939705D01*
X37994808Y-39939705D02*
X37947189Y-39892086D01*
X37947189Y-39892086D02*
X37851951Y-39844467D01*
X37851951Y-39844467D02*
X37661475Y-39796848D01*
X37661475Y-39796848D02*
X37566237Y-39749229D01*
X37566237Y-39749229D02*
X37518618Y-39701610D01*
X37518618Y-39701610D02*
X37470999Y-39606372D01*
X37470999Y-39606372D02*
X37470999Y-39511134D01*
X37470999Y-39511134D02*
X37518618Y-39415896D01*
X37518618Y-39415896D02*
X37566237Y-39368277D01*
X37566237Y-39368277D02*
X37661475Y-39320658D01*
X37661475Y-39320658D02*
X37899570Y-39320658D01*
X37899570Y-39320658D02*
X38042427Y-39368277D01*
X38375761Y-39320658D02*
X38613856Y-40320658D01*
X38613856Y-40320658D02*
X38804332Y-39606372D01*
X38804332Y-39606372D02*
X38994808Y-40320658D01*
X38994808Y-40320658D02*
X39232904Y-39320658D01*
X40137665Y-40320658D02*
X39566237Y-40320658D01*
X39851951Y-40320658D02*
X39851951Y-39320658D01*
X39851951Y-39320658D02*
X39756713Y-39463515D01*
X39756713Y-39463515D02*
X39661475Y-39558753D01*
X39661475Y-39558753D02*
X39566237Y-39606372D01*
X75755994Y-78289768D02*
X75898851Y-78337387D01*
X75898851Y-78337387D02*
X76136946Y-78337387D01*
X76136946Y-78337387D02*
X76232184Y-78289768D01*
X76232184Y-78289768D02*
X76279803Y-78242148D01*
X76279803Y-78242148D02*
X76327422Y-78146910D01*
X76327422Y-78146910D02*
X76327422Y-78051672D01*
X76327422Y-78051672D02*
X76279803Y-77956434D01*
X76279803Y-77956434D02*
X76232184Y-77908815D01*
X76232184Y-77908815D02*
X76136946Y-77861196D01*
X76136946Y-77861196D02*
X75946470Y-77813577D01*
X75946470Y-77813577D02*
X75851232Y-77765958D01*
X75851232Y-77765958D02*
X75803613Y-77718339D01*
X75803613Y-77718339D02*
X75755994Y-77623101D01*
X75755994Y-77623101D02*
X75755994Y-77527863D01*
X75755994Y-77527863D02*
X75803613Y-77432625D01*
X75803613Y-77432625D02*
X75851232Y-77385006D01*
X75851232Y-77385006D02*
X75946470Y-77337387D01*
X75946470Y-77337387D02*
X76184565Y-77337387D01*
X76184565Y-77337387D02*
X76327422Y-77385006D01*
X76660756Y-77337387D02*
X76898851Y-78337387D01*
X76898851Y-78337387D02*
X77089327Y-77623101D01*
X77089327Y-77623101D02*
X77279803Y-78337387D01*
X77279803Y-78337387D02*
X77517899Y-77337387D01*
X77946470Y-78337387D02*
X78136946Y-78337387D01*
X78136946Y-78337387D02*
X78232184Y-78289768D01*
X78232184Y-78289768D02*
X78279803Y-78242148D01*
X78279803Y-78242148D02*
X78375041Y-78099291D01*
X78375041Y-78099291D02*
X78422660Y-77908815D01*
X78422660Y-77908815D02*
X78422660Y-77527863D01*
X78422660Y-77527863D02*
X78375041Y-77432625D01*
X78375041Y-77432625D02*
X78327422Y-77385006D01*
X78327422Y-77385006D02*
X78232184Y-77337387D01*
X78232184Y-77337387D02*
X78041708Y-77337387D01*
X78041708Y-77337387D02*
X77946470Y-77385006D01*
X77946470Y-77385006D02*
X77898851Y-77432625D01*
X77898851Y-77432625D02*
X77851232Y-77527863D01*
X77851232Y-77527863D02*
X77851232Y-77765958D01*
X77851232Y-77765958D02*
X77898851Y-77861196D01*
X77898851Y-77861196D02*
X77946470Y-77908815D01*
X77946470Y-77908815D02*
X78041708Y-77956434D01*
X78041708Y-77956434D02*
X78232184Y-77956434D01*
X78232184Y-77956434D02*
X78327422Y-77908815D01*
X78327422Y-77908815D02*
X78375041Y-77861196D01*
X78375041Y-77861196D02*
X78422660Y-77765958D01*
X56675505Y-78307275D02*
X56818362Y-78354894D01*
X56818362Y-78354894D02*
X57056457Y-78354894D01*
X57056457Y-78354894D02*
X57151695Y-78307275D01*
X57151695Y-78307275D02*
X57199314Y-78259655D01*
X57199314Y-78259655D02*
X57246933Y-78164417D01*
X57246933Y-78164417D02*
X57246933Y-78069179D01*
X57246933Y-78069179D02*
X57199314Y-77973941D01*
X57199314Y-77973941D02*
X57151695Y-77926322D01*
X57151695Y-77926322D02*
X57056457Y-77878703D01*
X57056457Y-77878703D02*
X56865981Y-77831084D01*
X56865981Y-77831084D02*
X56770743Y-77783465D01*
X56770743Y-77783465D02*
X56723124Y-77735846D01*
X56723124Y-77735846D02*
X56675505Y-77640608D01*
X56675505Y-77640608D02*
X56675505Y-77545370D01*
X56675505Y-77545370D02*
X56723124Y-77450132D01*
X56723124Y-77450132D02*
X56770743Y-77402513D01*
X56770743Y-77402513D02*
X56865981Y-77354894D01*
X56865981Y-77354894D02*
X57104076Y-77354894D01*
X57104076Y-77354894D02*
X57246933Y-77402513D01*
X57580267Y-77354894D02*
X57818362Y-78354894D01*
X57818362Y-78354894D02*
X58008838Y-77640608D01*
X58008838Y-77640608D02*
X58199314Y-78354894D01*
X58199314Y-78354894D02*
X58437410Y-77354894D01*
X58961219Y-77783465D02*
X58865981Y-77735846D01*
X58865981Y-77735846D02*
X58818362Y-77688227D01*
X58818362Y-77688227D02*
X58770743Y-77592989D01*
X58770743Y-77592989D02*
X58770743Y-77545370D01*
X58770743Y-77545370D02*
X58818362Y-77450132D01*
X58818362Y-77450132D02*
X58865981Y-77402513D01*
X58865981Y-77402513D02*
X58961219Y-77354894D01*
X58961219Y-77354894D02*
X59151695Y-77354894D01*
X59151695Y-77354894D02*
X59246933Y-77402513D01*
X59246933Y-77402513D02*
X59294552Y-77450132D01*
X59294552Y-77450132D02*
X59342171Y-77545370D01*
X59342171Y-77545370D02*
X59342171Y-77592989D01*
X59342171Y-77592989D02*
X59294552Y-77688227D01*
X59294552Y-77688227D02*
X59246933Y-77735846D01*
X59246933Y-77735846D02*
X59151695Y-77783465D01*
X59151695Y-77783465D02*
X58961219Y-77783465D01*
X58961219Y-77783465D02*
X58865981Y-77831084D01*
X58865981Y-77831084D02*
X58818362Y-77878703D01*
X58818362Y-77878703D02*
X58770743Y-77973941D01*
X58770743Y-77973941D02*
X58770743Y-78164417D01*
X58770743Y-78164417D02*
X58818362Y-78259655D01*
X58818362Y-78259655D02*
X58865981Y-78307275D01*
X58865981Y-78307275D02*
X58961219Y-78354894D01*
X58961219Y-78354894D02*
X59151695Y-78354894D01*
X59151695Y-78354894D02*
X59246933Y-78307275D01*
X59246933Y-78307275D02*
X59294552Y-78259655D01*
X59294552Y-78259655D02*
X59342171Y-78164417D01*
X59342171Y-78164417D02*
X59342171Y-77973941D01*
X59342171Y-77973941D02*
X59294552Y-77878703D01*
X59294552Y-77878703D02*
X59246933Y-77831084D01*
X59246933Y-77831084D02*
X59151695Y-77783465D01*
X56679417Y-40207276D02*
X56822274Y-40254895D01*
X56822274Y-40254895D02*
X57060369Y-40254895D01*
X57060369Y-40254895D02*
X57155607Y-40207276D01*
X57155607Y-40207276D02*
X57203226Y-40159656D01*
X57203226Y-40159656D02*
X57250845Y-40064418D01*
X57250845Y-40064418D02*
X57250845Y-39969180D01*
X57250845Y-39969180D02*
X57203226Y-39873942D01*
X57203226Y-39873942D02*
X57155607Y-39826323D01*
X57155607Y-39826323D02*
X57060369Y-39778704D01*
X57060369Y-39778704D02*
X56869893Y-39731085D01*
X56869893Y-39731085D02*
X56774655Y-39683466D01*
X56774655Y-39683466D02*
X56727036Y-39635847D01*
X56727036Y-39635847D02*
X56679417Y-39540609D01*
X56679417Y-39540609D02*
X56679417Y-39445371D01*
X56679417Y-39445371D02*
X56727036Y-39350133D01*
X56727036Y-39350133D02*
X56774655Y-39302514D01*
X56774655Y-39302514D02*
X56869893Y-39254895D01*
X56869893Y-39254895D02*
X57107988Y-39254895D01*
X57107988Y-39254895D02*
X57250845Y-39302514D01*
X57584179Y-39254895D02*
X57822274Y-40254895D01*
X57822274Y-40254895D02*
X58012750Y-39540609D01*
X58012750Y-39540609D02*
X58203226Y-40254895D01*
X58203226Y-40254895D02*
X58441322Y-39254895D01*
X58774655Y-39350133D02*
X58822274Y-39302514D01*
X58822274Y-39302514D02*
X58917512Y-39254895D01*
X58917512Y-39254895D02*
X59155607Y-39254895D01*
X59155607Y-39254895D02*
X59250845Y-39302514D01*
X59250845Y-39302514D02*
X59298464Y-39350133D01*
X59298464Y-39350133D02*
X59346083Y-39445371D01*
X59346083Y-39445371D02*
X59346083Y-39540609D01*
X59346083Y-39540609D02*
X59298464Y-39683466D01*
X59298464Y-39683466D02*
X58727036Y-40254895D01*
X58727036Y-40254895D02*
X59346083Y-40254895D01*
X31064473Y-20846794D02*
X31064473Y-21561079D01*
X31064473Y-21561079D02*
X31016854Y-21703936D01*
X31016854Y-21703936D02*
X30921616Y-21799175D01*
X30921616Y-21799175D02*
X30778759Y-21846794D01*
X30778759Y-21846794D02*
X30683521Y-21846794D01*
X32064473Y-21846794D02*
X31493045Y-21846794D01*
X31778759Y-21846794D02*
X31778759Y-20846794D01*
X31778759Y-20846794D02*
X31683521Y-20989651D01*
X31683521Y-20989651D02*
X31588283Y-21084889D01*
X31588283Y-21084889D02*
X31493045Y-21132508D01*
D13*
%TO.C,G\u002A\u002A\u002A*%
G36*
X38415645Y-76090424D02*
G01*
X39053801Y-76109578D01*
X39638519Y-76147833D01*
X40133857Y-76205165D01*
X40152524Y-76208046D01*
X41519020Y-76483910D01*
X42832159Y-76875497D01*
X44088772Y-77381173D01*
X45285684Y-77999305D01*
X46419726Y-78728259D01*
X47487725Y-79566402D01*
X48464201Y-80489011D01*
X49364403Y-81504917D01*
X50151091Y-82576904D01*
X50825808Y-83708129D01*
X51390096Y-84901746D01*
X51845499Y-86160912D01*
X52193560Y-87488783D01*
X52380100Y-88499115D01*
X52440262Y-89016242D01*
X52478865Y-89622359D01*
X52495931Y-90280003D01*
X52491485Y-90951711D01*
X52465551Y-91600019D01*
X52418155Y-92187464D01*
X52377509Y-92507954D01*
X52109261Y-93869322D01*
X51721672Y-95184777D01*
X51216007Y-96451268D01*
X50593532Y-97665746D01*
X49855510Y-98825163D01*
X49623077Y-99146590D01*
X49367582Y-99466662D01*
X49038003Y-99844214D01*
X48658611Y-100254369D01*
X48253674Y-100672245D01*
X47847463Y-101072965D01*
X47464246Y-101431647D01*
X47128293Y-101723413D01*
X47040662Y-101793931D01*
X45999727Y-102534605D01*
X44875492Y-103190457D01*
X43687838Y-103752896D01*
X42456642Y-104213326D01*
X41201784Y-104563155D01*
X40179478Y-104759873D01*
X39808114Y-104804303D01*
X39347377Y-104840543D01*
X38831089Y-104867661D01*
X38293071Y-104884721D01*
X37767147Y-104890790D01*
X37287137Y-104884932D01*
X36886865Y-104866214D01*
X36753029Y-104854540D01*
X35544237Y-104673537D01*
X34308996Y-104382112D01*
X33241287Y-104046213D01*
X32974985Y-103948432D01*
X32760468Y-103861843D01*
X32622494Y-103796950D01*
X32583837Y-103767284D01*
X32625465Y-103707809D01*
X32740279Y-103571833D01*
X32913178Y-103375925D01*
X33129057Y-103136650D01*
X33372815Y-102870575D01*
X33629349Y-102594268D01*
X33883556Y-102324296D01*
X34120333Y-102077224D01*
X34186690Y-102009042D01*
X34429507Y-101760635D01*
X35062101Y-101926930D01*
X36040296Y-102132933D01*
X37074956Y-102256938D01*
X38134100Y-102298707D01*
X39185746Y-102257996D01*
X40197914Y-102134565D01*
X40975846Y-101971497D01*
X42168640Y-101603020D01*
X43297793Y-101124164D01*
X44359205Y-100537821D01*
X45348777Y-99846886D01*
X46262410Y-99054252D01*
X47096004Y-98162813D01*
X47845460Y-97175462D01*
X47913756Y-97074353D01*
X48541859Y-96032854D01*
X49049411Y-94963884D01*
X49443737Y-93850183D01*
X49686496Y-92897260D01*
X49775678Y-92371718D01*
X49841825Y-91757996D01*
X49883837Y-91093195D01*
X49900619Y-90414420D01*
X49891071Y-89758773D01*
X49854096Y-89163358D01*
X49808252Y-88782178D01*
X49556351Y-87543042D01*
X49192308Y-86366172D01*
X48715983Y-85251294D01*
X48127240Y-84198135D01*
X47425941Y-83206419D01*
X46611948Y-82275874D01*
X46461666Y-82123059D01*
X45598768Y-81342654D01*
X44659974Y-80646412D01*
X43661981Y-80043636D01*
X42621485Y-79543631D01*
X41555184Y-79155701D01*
X40761868Y-78946818D01*
X39810901Y-78784106D01*
X38807289Y-78697752D01*
X37780802Y-78686596D01*
X36761212Y-78749478D01*
X35778293Y-78885240D01*
X34861815Y-79092720D01*
X34540151Y-79189164D01*
X33378754Y-79629190D01*
X32284247Y-80175451D01*
X31262189Y-80822049D01*
X30318140Y-81563084D01*
X29457658Y-82392658D01*
X28686302Y-83304873D01*
X28009632Y-84293830D01*
X27433205Y-85353631D01*
X26962583Y-86478376D01*
X26621011Y-87592030D01*
X26451241Y-88423799D01*
X26342609Y-89327453D01*
X26295290Y-90268785D01*
X26309457Y-91213585D01*
X26385283Y-92127644D01*
X26522944Y-92976754D01*
X26592102Y-93277651D01*
X26942595Y-94426345D01*
X27403348Y-95536466D01*
X27965426Y-96590427D01*
X28619896Y-97570640D01*
X29045056Y-98106431D01*
X29193672Y-98272458D01*
X29312262Y-98387424D01*
X29376119Y-98427482D01*
X29377318Y-98427138D01*
X29434419Y-98375535D01*
X29565617Y-98241969D01*
X29759536Y-98038797D01*
X30004802Y-97778376D01*
X30290040Y-97473064D01*
X30603874Y-97135218D01*
X30934930Y-96777195D01*
X31271834Y-96411352D01*
X31603209Y-96050047D01*
X31917682Y-95705638D01*
X32203876Y-95390482D01*
X32450418Y-95116935D01*
X32645933Y-94897356D01*
X32779045Y-94744101D01*
X32838379Y-94669528D01*
X32840403Y-94664953D01*
X32796160Y-94602571D01*
X32675190Y-94471501D01*
X32495127Y-94289959D01*
X32273608Y-94076158D01*
X32235112Y-94039811D01*
X31831521Y-93656860D01*
X31423700Y-93264271D01*
X31021845Y-92872366D01*
X30636153Y-92491463D01*
X30276822Y-92131881D01*
X29954049Y-91803940D01*
X29678030Y-91517959D01*
X29458963Y-91284258D01*
X29307045Y-91113155D01*
X29232473Y-91014972D01*
X29227592Y-90996212D01*
X29298360Y-90980691D01*
X29478627Y-90955141D01*
X29750163Y-90921451D01*
X30094738Y-90881512D01*
X30494125Y-90837212D01*
X30930092Y-90790442D01*
X31384412Y-90743091D01*
X31838854Y-90697048D01*
X32275189Y-90654203D01*
X32675188Y-90616446D01*
X33020621Y-90585666D01*
X33293260Y-90563753D01*
X33474875Y-90552596D01*
X33517246Y-90551568D01*
X33595666Y-90505066D01*
X33757474Y-90368000D01*
X33998941Y-90143967D01*
X34316333Y-89836565D01*
X34705918Y-89449390D01*
X35163965Y-88986041D01*
X35530154Y-88611290D01*
X35939781Y-88191800D01*
X36328152Y-87796877D01*
X36684785Y-87436977D01*
X36999198Y-87122557D01*
X37260908Y-86864071D01*
X37459433Y-86671977D01*
X37584291Y-86556729D01*
X37614750Y-86531937D01*
X37716254Y-86481479D01*
X37925379Y-86394559D01*
X38228396Y-86276317D01*
X38611577Y-86131892D01*
X39061191Y-85966421D01*
X39563511Y-85785045D01*
X40104807Y-85592901D01*
X40399412Y-85489639D01*
X41081764Y-85251985D01*
X41654336Y-85054753D01*
X42128359Y-84895792D01*
X42515065Y-84772952D01*
X42825687Y-84684083D01*
X43071456Y-84627034D01*
X43263605Y-84599654D01*
X43413366Y-84599795D01*
X43531970Y-84625304D01*
X43630650Y-84674033D01*
X43720637Y-84743829D01*
X43813165Y-84832544D01*
X43816131Y-84835509D01*
X43966848Y-85002248D01*
X44041280Y-85143670D01*
X44064440Y-85313166D01*
X44065151Y-85367071D01*
X44053511Y-85475554D01*
X44017447Y-85652891D01*
X43955242Y-85904992D01*
X43865180Y-86237769D01*
X43745542Y-86657134D01*
X43594612Y-87168997D01*
X43410673Y-87779270D01*
X43192009Y-88493864D01*
X42936901Y-89318690D01*
X42649795Y-90239950D01*
X42396369Y-91050734D01*
X40392502Y-93106796D01*
X39909635Y-93603122D01*
X39509477Y-94016848D01*
X39184445Y-94356500D01*
X38926958Y-94630606D01*
X38729435Y-94847694D01*
X38584294Y-95016290D01*
X38483954Y-95144921D01*
X38420833Y-95242115D01*
X38387349Y-95316399D01*
X38376005Y-95374799D01*
X38360412Y-95562947D01*
X38331734Y-95838302D01*
X38292360Y-96182781D01*
X38244680Y-96578302D01*
X38191084Y-97006783D01*
X38133959Y-97450139D01*
X38075697Y-97890289D01*
X38018686Y-98309149D01*
X37965315Y-98688636D01*
X37917974Y-99010669D01*
X37879052Y-99257164D01*
X37850939Y-99410037D01*
X37837166Y-99452823D01*
X37781539Y-99405698D01*
X37644470Y-99279448D01*
X37436651Y-99084214D01*
X37168773Y-98830132D01*
X36851529Y-98527343D01*
X36495610Y-98185985D01*
X36135296Y-97838964D01*
X34481133Y-96242701D01*
X34157864Y-96591871D01*
X34033070Y-96726956D01*
X33835228Y-96941477D01*
X33578136Y-97220457D01*
X33275592Y-97548916D01*
X32941395Y-97911877D01*
X32589343Y-98294362D01*
X32455555Y-98439750D01*
X31855105Y-99092127D01*
X31335479Y-99656227D01*
X30890797Y-100138318D01*
X30515175Y-100544669D01*
X30202735Y-100881547D01*
X29947593Y-101155222D01*
X29743870Y-101371960D01*
X29585684Y-101538031D01*
X29467154Y-101659702D01*
X29382398Y-101743242D01*
X29325536Y-101794918D01*
X29290687Y-101820999D01*
X29277317Y-101827128D01*
X29203073Y-101794672D01*
X29056273Y-101692396D01*
X28859196Y-101536864D01*
X28665920Y-101372642D01*
X27661649Y-100411545D01*
X26767975Y-99385472D01*
X25985053Y-98294705D01*
X25313034Y-97139521D01*
X24752070Y-95920201D01*
X24302313Y-94637024D01*
X23963916Y-93290269D01*
X23818077Y-92475883D01*
X23758540Y-91963752D01*
X23720016Y-91363600D01*
X23702496Y-90713165D01*
X23705969Y-90050185D01*
X23730425Y-89412399D01*
X23775855Y-88837545D01*
X23819145Y-88499115D01*
X24092106Y-87116210D01*
X24471368Y-85804329D01*
X24958432Y-84560512D01*
X25554801Y-83381798D01*
X26261978Y-82265226D01*
X27081465Y-81207834D01*
X28014764Y-80206661D01*
X28038545Y-80183328D01*
X29060983Y-79269259D01*
X30147298Y-78466313D01*
X31296032Y-77775213D01*
X32505727Y-77196685D01*
X33774924Y-76731452D01*
X35102164Y-76380239D01*
X36047474Y-76205309D01*
X36539966Y-76147816D01*
X37122786Y-76109520D01*
X37759993Y-76090397D01*
X38415645Y-76090424D01*
G37*
D14*
%TO.C,SW11*%
X71072588Y-21582825D02*
X73472588Y-21582825D01*
X71072588Y-25682825D02*
X71072588Y-21582825D01*
X71072588Y-29682825D02*
X71072588Y-33782825D01*
X71072588Y-33782825D02*
X82872588Y-33782825D01*
X72872588Y-34882825D02*
X73172588Y-35182825D01*
X72872588Y-35482825D02*
X72872588Y-34882825D01*
X73172588Y-35182825D02*
X72872588Y-35482825D01*
X75672588Y-21582825D02*
X78272588Y-21582825D01*
X76472588Y-27682825D02*
X77472588Y-27682825D01*
X76972588Y-28182825D02*
X76972588Y-27182825D01*
X80472588Y-21582825D02*
X82872588Y-21582825D01*
X82872588Y-21582825D02*
X82872588Y-25682825D01*
X82872588Y-29682825D02*
X82872588Y-33782825D01*
X79972588Y-27682825D02*
G75*
G02*
X73972588Y-27682825I-3000000J0D01*
G01*
X73972588Y-27682825D02*
G75*
G02*
X79972588Y-27682825I3000000J0D01*
G01*
%TO.C,D6*%
X65908838Y-64577825D02*
X66088838Y-64577825D01*
X65908838Y-67297825D02*
X68748838Y-67297825D01*
X65908838Y-67417825D02*
X68748838Y-67417825D01*
X65908838Y-67537825D02*
X68748838Y-67537825D01*
X65908838Y-68017825D02*
X65908838Y-64577825D01*
X66088838Y-68017825D02*
X65908838Y-68017825D01*
X68568838Y-68017825D02*
X68748838Y-68017825D01*
X68748838Y-64577825D02*
X68568838Y-64577825D01*
X68748838Y-68017825D02*
X68748838Y-64577825D01*
%TO.C,D7*%
X85252462Y-64776503D02*
X85432462Y-64776503D01*
X85252462Y-67496503D02*
X88092462Y-67496503D01*
X85252462Y-67616503D02*
X88092462Y-67616503D01*
X85252462Y-67736503D02*
X88092462Y-67736503D01*
X85252462Y-68216503D02*
X85252462Y-64776503D01*
X85432462Y-68216503D02*
X85252462Y-68216503D01*
X87912462Y-68216503D02*
X88092462Y-68216503D01*
X88092462Y-64776503D02*
X87912462Y-64776503D01*
X88092462Y-68216503D02*
X88092462Y-64776503D01*
%TO.C,SW4*%
X31977750Y-59739076D02*
X45947750Y-59739076D01*
X31977750Y-73709076D02*
X31977750Y-59739076D01*
X45947750Y-59739076D02*
X45947750Y-73709076D01*
X45947750Y-73709076D02*
X31977750Y-73709076D01*
%TO.C,D10*%
X85031075Y-83824167D02*
X85211075Y-83824167D01*
X85031075Y-86544167D02*
X87871075Y-86544167D01*
X85031075Y-86664167D02*
X87871075Y-86664167D01*
X85031075Y-86784167D02*
X87871075Y-86784167D01*
X85031075Y-87264167D02*
X85031075Y-83824167D01*
X85211075Y-87264167D02*
X85031075Y-87264167D01*
X87691075Y-87264167D02*
X87871075Y-87264167D01*
X87871075Y-83824167D02*
X87691075Y-83824167D01*
X87871075Y-87264167D02*
X87871075Y-83824167D01*
%TO.C,D4*%
X84958838Y-45527825D02*
X85138838Y-45527825D01*
X84958838Y-48247825D02*
X87798838Y-48247825D01*
X84958838Y-48367825D02*
X87798838Y-48367825D01*
X84958838Y-48487825D02*
X87798838Y-48487825D01*
X84958838Y-48967825D02*
X84958838Y-45527825D01*
X85138838Y-48967825D02*
X84958838Y-48967825D01*
X87618838Y-48967825D02*
X87798838Y-48967825D01*
X87798838Y-45527825D02*
X87618838Y-45527825D01*
X87798838Y-48967825D02*
X87798838Y-45527825D01*
%TO.C,SW3*%
X70088336Y-40692742D02*
X84058336Y-40692742D01*
X70088336Y-54662742D02*
X70088336Y-40692742D01*
X84058336Y-40692742D02*
X84058336Y-54662742D01*
X84058336Y-54662742D02*
X70088336Y-54662742D01*
%TO.C,D5*%
X46858838Y-64577825D02*
X47038838Y-64577825D01*
X46858838Y-67297825D02*
X49698838Y-67297825D01*
X46858838Y-67417825D02*
X49698838Y-67417825D01*
X46858838Y-67537825D02*
X49698838Y-67537825D01*
X46858838Y-68017825D02*
X46858838Y-64577825D01*
X47038838Y-68017825D02*
X46858838Y-68017825D01*
X49518838Y-68017825D02*
X49698838Y-68017825D01*
X49698838Y-64577825D02*
X49518838Y-64577825D01*
X49698838Y-68017825D02*
X49698838Y-64577825D01*
%TO.C,SW5*%
X51027750Y-59739076D02*
X64997750Y-59739076D01*
X51027750Y-73709076D02*
X51027750Y-59739076D01*
X64997750Y-59739076D02*
X64997750Y-73709076D01*
X64997750Y-73709076D02*
X51027750Y-73709076D01*
%TO.C,D8*%
X46858838Y-83627825D02*
X47038838Y-83627825D01*
X46858838Y-86347825D02*
X49698838Y-86347825D01*
X46858838Y-86467825D02*
X49698838Y-86467825D01*
X46858838Y-86587825D02*
X49698838Y-86587825D01*
X46858838Y-87067825D02*
X46858838Y-83627825D01*
X47038838Y-87067825D02*
X46858838Y-87067825D01*
X49518838Y-87067825D02*
X49698838Y-87067825D01*
X49698838Y-83627825D02*
X49518838Y-83627825D01*
X49698838Y-87067825D02*
X49698838Y-83627825D01*
%TO.C,D9*%
X66252957Y-83824167D02*
X66432957Y-83824167D01*
X66252957Y-86544167D02*
X69092957Y-86544167D01*
X66252957Y-86664167D02*
X69092957Y-86664167D01*
X66252957Y-86784167D02*
X69092957Y-86784167D01*
X66252957Y-87264167D02*
X66252957Y-83824167D01*
X66432957Y-87264167D02*
X66252957Y-87264167D01*
X68912957Y-87264167D02*
X69092957Y-87264167D01*
X69092957Y-83824167D02*
X68912957Y-83824167D01*
X69092957Y-87264167D02*
X69092957Y-83824167D01*
%TO.C,D2*%
X46858838Y-45527825D02*
X47038838Y-45527825D01*
X46858838Y-48247825D02*
X49698838Y-48247825D01*
X46858838Y-48367825D02*
X49698838Y-48367825D01*
X46858838Y-48487825D02*
X49698838Y-48487825D01*
X46858838Y-48967825D02*
X46858838Y-45527825D01*
X47038838Y-48967825D02*
X46858838Y-48967825D01*
X49518838Y-48967825D02*
X49698838Y-48967825D01*
X49698838Y-45527825D02*
X49518838Y-45527825D01*
X49698838Y-48967825D02*
X49698838Y-45527825D01*
%TO.C,SW7*%
X31975192Y-78739545D02*
X45945192Y-78739545D01*
X31975192Y-92709545D02*
X31975192Y-78739545D01*
X45945192Y-78739545D02*
X45945192Y-92709545D01*
X45945192Y-92709545D02*
X31975192Y-92709545D01*
%TO.C,SW1*%
X31982767Y-40685023D02*
X45952767Y-40685023D01*
X31982767Y-54655023D02*
X31982767Y-40685023D01*
X45952767Y-40685023D02*
X45952767Y-54655023D01*
X45952767Y-54655023D02*
X31982767Y-54655023D01*
%TO.C,SW9*%
X70104327Y-78771568D02*
X84074327Y-78771568D01*
X70104327Y-92741568D02*
X70104327Y-78771568D01*
X84074327Y-78771568D02*
X84074327Y-92741568D01*
X84074327Y-92741568D02*
X70104327Y-92741568D01*
%TO.C,SW8*%
X51023838Y-78789075D02*
X64993838Y-78789075D01*
X51023838Y-92759075D02*
X51023838Y-78789075D01*
X64993838Y-78789075D02*
X64993838Y-92759075D01*
X64993838Y-92759075D02*
X51023838Y-92759075D01*
%TO.C,SW2*%
X51027750Y-40689076D02*
X64997750Y-40689076D01*
X51027750Y-54659076D02*
X51027750Y-40689076D01*
X64997750Y-40689076D02*
X64997750Y-54659076D01*
X64997750Y-54659076D02*
X51027750Y-54659076D01*
%TO.C,D3*%
X65908838Y-45527825D02*
X66088838Y-45527825D01*
X65908838Y-48247825D02*
X68748838Y-48247825D01*
X65908838Y-48367825D02*
X68748838Y-48367825D01*
X65908838Y-48487825D02*
X68748838Y-48487825D01*
X65908838Y-48967825D02*
X65908838Y-45527825D01*
X66088838Y-48967825D02*
X65908838Y-48967825D01*
X68568838Y-48967825D02*
X68748838Y-48967825D01*
X68748838Y-45527825D02*
X68568838Y-45527825D01*
X68748838Y-48967825D02*
X68748838Y-45527825D01*
%TO.C,SW6*%
X70073531Y-59741391D02*
X84043531Y-59741391D01*
X70073531Y-73711391D02*
X70073531Y-59741391D01*
X84043531Y-59741391D02*
X84043531Y-73711391D01*
X84043531Y-73711391D02*
X70073531Y-73711391D01*
%TO.C,J1*%
X30067807Y-25431975D02*
X30067807Y-33111975D01*
X30067807Y-25431975D02*
X32727807Y-25431975D01*
X30067807Y-33111975D02*
X32727807Y-33111975D01*
X31397807Y-22831975D02*
X32727807Y-22831975D01*
X32727807Y-22831975D02*
X32727807Y-24161975D01*
X32727807Y-25431975D02*
X32727807Y-33111975D01*
%TD*%
M02*
