%TF.GenerationSoftware,KiCad,Pcbnew,9.0.1*%
%TF.CreationDate,2025-06-05T14:05:19-05:00*%
%TF.ProjectId,CopyPAD,436f7079-5041-4442-9e6b-696361645f70,rev?*%
%TF.SameCoordinates,Original*%
%TF.FileFunction,Copper,L2,Bot*%
%TF.FilePolarity,Positive*%
%FSLAX46Y46*%
G04 Gerber Fmt 4.6, Leading zero omitted, Abs format (unit mm)*
G04 Created by KiCad (PCBNEW 9.0.1) date 2025-06-05 14:05:19*
%MOMM*%
%LPD*%
G01*
G04 APERTURE LIST*
G04 Aperture macros list*
%AMRoundRect*
0 Rectangle with rounded corners*
0 $1 Rounding radius*
0 $2 $3 $4 $5 $6 $7 $8 $9 X,Y pos of 4 corners*
0 Add a 4 corners polygon primitive as box body*
4,1,4,$2,$3,$4,$5,$6,$7,$8,$9,$2,$3,0*
0 Add four circle primitives for the rounded corners*
1,1,$1+$1,$2,$3*
1,1,$1+$1,$4,$5*
1,1,$1+$1,$6,$7*
1,1,$1+$1,$8,$9*
0 Add four rect primitives between the rounded corners*
20,1,$1+$1,$2,$3,$4,$5,0*
20,1,$1+$1,$4,$5,$6,$7,0*
20,1,$1+$1,$6,$7,$8,$9,0*
20,1,$1+$1,$8,$9,$2,$3,0*%
G04 Aperture macros list end*
%TA.AperFunction,SMDPad,CuDef*%
%ADD10RoundRect,0.500000X0.875000X0.500000X-0.875000X0.500000X-0.875000X-0.500000X0.875000X-0.500000X0*%
%TD*%
%TA.AperFunction,SMDPad,CuDef*%
%ADD11RoundRect,0.275000X-0.275000X0.975000X-0.275000X-0.975000X0.275000X-0.975000X0.275000X0.975000X0*%
%TD*%
%TA.AperFunction,SMDPad,CuDef*%
%ADD12C,1.700000*%
%TD*%
%TA.AperFunction,ComponentPad*%
%ADD13R,2.000000X2.000000*%
%TD*%
%TA.AperFunction,ComponentPad*%
%ADD14C,2.000000*%
%TD*%
%TA.AperFunction,ComponentPad*%
%ADD15R,2.000000X3.200000*%
%TD*%
%TA.AperFunction,ComponentPad*%
%ADD16O,2.000000X2.000000*%
%TD*%
%TA.AperFunction,ComponentPad*%
%ADD17C,6.400000*%
%TD*%
%TA.AperFunction,ComponentPad*%
%ADD18C,2.200000*%
%TD*%
%TA.AperFunction,ComponentPad*%
%ADD19R,1.700000X1.700000*%
%TD*%
%TA.AperFunction,ComponentPad*%
%ADD20C,1.700000*%
%TD*%
%TA.AperFunction,SMDPad,CuDef*%
%ADD21R,1.500000X0.820000*%
%TD*%
%TA.AperFunction,ViaPad*%
%ADD22C,0.600000*%
%TD*%
%TA.AperFunction,Conductor*%
%ADD23C,0.200000*%
%TD*%
G04 APERTURE END LIST*
D10*
%TO.P,U1,1,GPIO26/ADC0/A0*%
%TO.N,Net-(U1-GPIO26{slash}ADC0{slash}A0)*%
X66003171Y-19185357D03*
%TO.P,U1,2,GPIO27/ADC1/A1*%
%TO.N,Net-(U1-GPIO27{slash}ADC1{slash}A1)*%
X66003171Y-21725357D03*
%TO.P,U1,3,GPIO28/ADC2/A2*%
%TO.N,Net-(D1-DIN)*%
X66003171Y-24265357D03*
%TO.P,U1,4,GPIO29/ADC3/A3*%
%TO.N,Row 2*%
X66003171Y-26805357D03*
%TO.P,U1,5,GPIO6/SDA*%
%TO.N,/SDA*%
X66003171Y-29345357D03*
%TO.P,U1,6,GPIO7/SCL*%
%TO.N,/SCL*%
X66003171Y-31885357D03*
%TO.P,U1,7,GPIO0/TX*%
%TO.N,Row 1*%
X66003171Y-34425357D03*
%TO.P,U1,8,GPIO1/RX*%
%TO.N,Row 0*%
X49838171Y-34425357D03*
%TO.P,U1,9,GPIO2/SCK*%
%TO.N,Column 2*%
X49838171Y-31885357D03*
%TO.P,U1,10,GPIO4/MISO*%
%TO.N,Column 1*%
X49838171Y-29345357D03*
%TO.P,U1,11,GPIO3/MOSI*%
%TO.N,Column 0*%
X49838171Y-26805357D03*
%TO.P,U1,12,3V3*%
%TO.N,unconnected-(U1-3V3-Pad12)*%
X49838171Y-24265357D03*
%TO.P,U1,13,GND*%
%TO.N,GND*%
X49838171Y-21725357D03*
%TO.P,U1,14,VBUS*%
%TO.N,+5V*%
X49838171Y-19185357D03*
D11*
%TO.P,U1,15*%
%TO.N,N/C*%
X59091171Y-35445357D03*
%TO.P,U1,16*%
X56551171Y-35445357D03*
D12*
%TO.P,U1,17*%
X59091171Y-18427357D03*
%TO.P,U1,18*%
X56551171Y-18427357D03*
%TO.P,U1,19*%
X59091171Y-20967357D03*
%TO.P,U1,20*%
X56551171Y-20967357D03*
%TD*%
D13*
%TO.P,SW11,A,A*%
%TO.N,Net-(U1-GPIO27{slash}ADC1{slash}A1)*%
X74472588Y-35182825D03*
D14*
%TO.P,SW11,B,B*%
%TO.N,Net-(U1-GPIO26{slash}ADC0{slash}A0)*%
X79472588Y-35182825D03*
%TO.P,SW11,C,C*%
%TO.N,unconnected-(SW11-PadC)*%
X76972588Y-35182825D03*
D15*
%TO.P,SW11,MP*%
%TO.N,N/C*%
X71372588Y-27682825D03*
X82572588Y-27682825D03*
D14*
%TO.P,SW11,S1,S1*%
%TO.N,unconnected-(SW11-PadS1)*%
X79472588Y-20682825D03*
%TO.P,SW11,S2,S2*%
%TO.N,unconnected-(SW11-PadS2)*%
X74472588Y-20682825D03*
%TD*%
D13*
%TO.P,D6,1,K*%
%TO.N,Row 1*%
X67328838Y-68837825D03*
D16*
%TO.P,D6,2,A*%
%TO.N,Net-(D6-A)*%
X67328838Y-63757825D03*
%TD*%
D17*
%TO.P,H4,1*%
%TO.N,N/C*%
X91141338Y-104239075D03*
%TD*%
D13*
%TO.P,D7,1,K*%
%TO.N,Row 1*%
X86672462Y-69036503D03*
D16*
%TO.P,D7,2,A*%
%TO.N,Net-(D7-A)*%
X86672462Y-63956503D03*
%TD*%
D18*
%TO.P,SW4,1,1*%
%TO.N,Column 0*%
X41502750Y-61644076D03*
%TO.P,SW4,2,2*%
%TO.N,Net-(D5-A)*%
X35152750Y-64184076D03*
%TD*%
D13*
%TO.P,D10,1,K*%
%TO.N,Row 2*%
X86451075Y-88084167D03*
D16*
%TO.P,D10,2,A*%
%TO.N,Net-(D10-A)*%
X86451075Y-83004167D03*
%TD*%
D13*
%TO.P,D4,1,K*%
%TO.N,Row 0*%
X86378838Y-49787825D03*
D16*
%TO.P,D4,2,A*%
%TO.N,Net-(D4-A)*%
X86378838Y-44707825D03*
%TD*%
D18*
%TO.P,SW3,1,1*%
%TO.N,Column 2*%
X79613336Y-42597742D03*
%TO.P,SW3,2,2*%
%TO.N,Net-(D4-A)*%
X73263336Y-45137742D03*
%TD*%
D17*
%TO.P,H2,1*%
%TO.N,N/C*%
X91141338Y-23276575D03*
%TD*%
D13*
%TO.P,D5,1,K*%
%TO.N,Row 1*%
X48278838Y-68837825D03*
D16*
%TO.P,D5,2,A*%
%TO.N,Net-(D5-A)*%
X48278838Y-63757825D03*
%TD*%
D17*
%TO.P,H3,1*%
%TO.N,N/C*%
X24466338Y-104239075D03*
%TD*%
D18*
%TO.P,SW5,1,1*%
%TO.N,Column 1*%
X60552750Y-61644076D03*
%TO.P,SW5,2,2*%
%TO.N,Net-(D6-A)*%
X54202750Y-64184076D03*
%TD*%
D17*
%TO.P,H1,1*%
%TO.N,N/C*%
X24466338Y-23276575D03*
%TD*%
D13*
%TO.P,D8,1,K*%
%TO.N,Row 2*%
X48278838Y-87887825D03*
D16*
%TO.P,D8,2,A*%
%TO.N,Net-(D8-A)*%
X48278838Y-82807825D03*
%TD*%
D13*
%TO.P,D9,1,K*%
%TO.N,Row 2*%
X67672957Y-88084167D03*
D16*
%TO.P,D9,2,A*%
%TO.N,Net-(D9-A)*%
X67672957Y-83004167D03*
%TD*%
D13*
%TO.P,D2,1,K*%
%TO.N,Row 0*%
X48278838Y-49787825D03*
D16*
%TO.P,D2,2,A*%
%TO.N,Net-(D2-A)*%
X48278838Y-44707825D03*
%TD*%
D18*
%TO.P,SW7,1,1*%
%TO.N,Column 0*%
X41500192Y-80644545D03*
%TO.P,SW7,2,2*%
%TO.N,Net-(D8-A)*%
X35150192Y-83184545D03*
%TD*%
%TO.P,SW1,1,1*%
%TO.N,Column 0*%
X41507767Y-42590023D03*
%TO.P,SW1,2,2*%
%TO.N,Net-(D2-A)*%
X35157767Y-45130023D03*
%TD*%
%TO.P,SW9,1,1*%
%TO.N,Column 2*%
X79629327Y-80676568D03*
%TO.P,SW9,2,2*%
%TO.N,Net-(D10-A)*%
X73279327Y-83216568D03*
%TD*%
%TO.P,SW8,1,1*%
%TO.N,Column 1*%
X60548838Y-80694075D03*
%TO.P,SW8,2,2*%
%TO.N,Net-(D9-A)*%
X54198838Y-83234075D03*
%TD*%
%TO.P,SW2,1,1*%
%TO.N,Column 1*%
X60552750Y-42594076D03*
%TO.P,SW2,2,2*%
%TO.N,Net-(D3-A)*%
X54202750Y-45134076D03*
%TD*%
D13*
%TO.P,D3,1,K*%
%TO.N,Row 0*%
X67328838Y-49787825D03*
D16*
%TO.P,D3,2,A*%
%TO.N,Net-(D3-A)*%
X67328838Y-44707825D03*
%TD*%
D18*
%TO.P,SW6,1,1*%
%TO.N,Column 2*%
X79598531Y-61646391D03*
%TO.P,SW6,2,2*%
%TO.N,Net-(D7-A)*%
X73248531Y-64186391D03*
%TD*%
D19*
%TO.P,J1,1,Pin_1*%
%TO.N,GND*%
X31397807Y-24161975D03*
D20*
%TO.P,J1,2,Pin_2*%
%TO.N,+5V*%
X31397807Y-26701975D03*
%TO.P,J1,3,Pin_3*%
%TO.N,/SCL*%
X31397807Y-29241975D03*
%TO.P,J1,4,Pin_4*%
%TO.N,/SDA*%
X31397807Y-31781975D03*
%TD*%
D21*
%TO.P,D11,1,DOUT*%
%TO.N,Net-(D11-DOUT)*%
X36096907Y-70151575D03*
%TO.P,D11,2,VSS*%
%TO.N,GND*%
X36096907Y-71651575D03*
%TO.P,D11,3,DIN*%
%TO.N,Net-(D1-DOUT)*%
X41696907Y-71651575D03*
%TO.P,D11,4,VDD*%
%TO.N,+5V*%
X41696907Y-70151575D03*
%TD*%
%TO.P,D16,1,DOUT*%
%TO.N,Net-(D16-DOUT)*%
X74483108Y-51101575D03*
%TO.P,D16,2,VSS*%
%TO.N,GND*%
X74483108Y-52601575D03*
%TO.P,D16,3,DIN*%
%TO.N,Net-(D15-DOUT)*%
X80083108Y-52601575D03*
%TO.P,D16,4,VDD*%
%TO.N,+5V*%
X80083108Y-51101575D03*
%TD*%
%TO.P,D17,1,DOUT*%
%TO.N,Net-(D17-DOUT)*%
X74522545Y-70253934D03*
%TO.P,D17,2,VSS*%
%TO.N,GND*%
X74522545Y-71753934D03*
%TO.P,D17,3,DIN*%
%TO.N,Net-(D16-DOUT)*%
X80122545Y-71753934D03*
%TO.P,D17,4,VDD*%
%TO.N,+5V*%
X80122545Y-70253934D03*
%TD*%
%TO.P,D14,1,DOUT*%
%TO.N,Net-(D14-DOUT)*%
X55635088Y-70250021D03*
%TO.P,D14,2,VSS*%
%TO.N,GND*%
X55635088Y-71750021D03*
%TO.P,D14,3,DIN*%
%TO.N,Net-(D13-DOUT)*%
X61235088Y-71750021D03*
%TO.P,D14,4,VDD*%
%TO.N,+5V*%
X61235088Y-70250021D03*
%TD*%
%TO.P,D12,1,DOUT*%
%TO.N,Net-(D12-DOUT)*%
X35953838Y-89201575D03*
%TO.P,D12,2,VSS*%
%TO.N,GND*%
X35953838Y-90701575D03*
%TO.P,D12,3,DIN*%
%TO.N,Net-(D11-DOUT)*%
X41553838Y-90701575D03*
%TO.P,D12,4,VDD*%
%TO.N,+5V*%
X41553838Y-89201575D03*
%TD*%
%TO.P,D15,1,DOUT*%
%TO.N,Net-(D15-DOUT)*%
X55198292Y-89428833D03*
%TO.P,D15,2,VSS*%
%TO.N,GND*%
X55198292Y-90928833D03*
%TO.P,D15,3,DIN*%
%TO.N,Net-(D14-DOUT)*%
X60798292Y-90928833D03*
%TO.P,D15,4,VDD*%
%TO.N,+5V*%
X60798292Y-89428833D03*
%TD*%
%TO.P,D1,1,DOUT*%
%TO.N,Net-(D1-DOUT)*%
X36140392Y-51044794D03*
%TO.P,D1,2,VSS*%
%TO.N,GND*%
X36140392Y-52544794D03*
%TO.P,D1,3,DIN*%
%TO.N,Net-(D1-DIN)*%
X41740392Y-52544794D03*
%TO.P,D1,4,VDD*%
%TO.N,+5V*%
X41740392Y-51044794D03*
%TD*%
%TO.P,D13,1,DOUT*%
%TO.N,Net-(D13-DOUT)*%
X55368531Y-51044794D03*
%TO.P,D13,2,VSS*%
%TO.N,GND*%
X55368531Y-52544794D03*
%TO.P,D13,3,DIN*%
%TO.N,Net-(D12-DOUT)*%
X60968531Y-52544794D03*
%TO.P,D13,4,VDD*%
%TO.N,+5V*%
X60968531Y-51044794D03*
%TD*%
%TO.P,D18,1,DOUT*%
%TO.N,unconnected-(D18-DOUT-Pad1)*%
X74435601Y-89199238D03*
%TO.P,D18,2,VSS*%
%TO.N,GND*%
X74435601Y-90699238D03*
%TO.P,D18,3,DIN*%
%TO.N,Net-(D17-DOUT)*%
X80035601Y-90699238D03*
%TO.P,D18,4,VDD*%
%TO.N,+5V*%
X80035601Y-89199238D03*
%TD*%
D22*
%TO.N,Net-(D1-DIN)*%
X68735088Y-25645325D03*
X44060088Y-52470325D03*
%TO.N,Net-(D11-DOUT)*%
X33410088Y-74370325D03*
X41760088Y-93595325D03*
%TO.N,Net-(D12-DOUT)*%
X32285088Y-74445325D03*
X32335088Y-76945325D03*
%TO.N,Net-(D13-DOUT)*%
X63460088Y-59395325D03*
X55335088Y-51045325D03*
%TO.N,Net-(D15-DOUT)*%
X87285088Y-56789675D03*
X52410088Y-89345325D03*
%TO.N,Net-(D16-DOUT)*%
X81910088Y-71770325D03*
X81910088Y-69653934D03*
%TO.N,GND*%
X72185088Y-88770325D03*
X72235088Y-62495325D03*
X36910088Y-73820325D03*
X52185088Y-71345325D03*
X33585088Y-52595325D03*
X35185088Y-87620325D03*
X67710088Y-73995325D03*
X55385088Y-53570325D03*
X74560088Y-53695325D03*
X72260088Y-59470325D03*
X33835088Y-89770325D03*
X54110088Y-72351521D03*
X73060088Y-74070325D03*
X69335088Y-90395325D03*
X38235088Y-76195325D03*
X72935088Y-71745325D03*
%TD*%
D23*
%TO.N,Net-(D12-DOUT)*%
X59333450Y-54295325D02*
X60968531Y-52660244D01*
X31635088Y-56651575D02*
X33991338Y-54295325D01*
X33991338Y-54295325D02*
X59333450Y-54295325D01*
X60968531Y-52660244D02*
X60968531Y-52544794D01*
X31635088Y-73795325D02*
X31635088Y-56651575D01*
X32285088Y-74445325D02*
X31635088Y-73795325D01*
%TO.N,Net-(D1-DOUT)*%
X31235088Y-74245268D02*
X31235088Y-54095382D01*
X32135145Y-75145325D02*
X31235088Y-74245268D01*
X34285676Y-51044794D02*
X36140392Y-51044794D01*
X41685088Y-75145325D02*
X32135145Y-75145325D01*
X31235088Y-54095382D02*
X34285676Y-51044794D01*
X41735088Y-75095325D02*
X41685088Y-75145325D01*
X41696907Y-75057144D02*
X41735088Y-75095325D01*
X41696907Y-71651575D02*
X41696907Y-75057144D01*
%TO.N,+5V*%
X42036907Y-70151575D02*
X41696907Y-70151575D01*
X41851188Y-75546325D02*
X42747907Y-74649606D01*
X31510088Y-76920382D02*
X32884145Y-75546325D01*
X42747907Y-74649606D02*
X42747907Y-70862575D01*
X42747907Y-70862575D02*
X42036907Y-70151575D01*
X31510088Y-93720325D02*
X31510088Y-76920382D01*
X32285088Y-94495325D02*
X31510088Y-93720325D01*
X32884145Y-75546325D02*
X41851188Y-75546325D01*
X43260088Y-94495325D02*
X32285088Y-94495325D01*
X39400713Y-29160950D02*
X36941738Y-26701975D01*
X39400713Y-44060950D02*
X39400713Y-29160950D01*
X36941738Y-26701975D02*
X31397807Y-26701975D01*
X41740392Y-46400629D02*
X39400713Y-44060950D01*
X41740392Y-51044794D02*
X41740392Y-46400629D01*
X49153203Y-19870325D02*
X49838171Y-19185357D01*
X29360088Y-22120325D02*
X31610088Y-19870325D01*
X31610088Y-19870325D02*
X49153203Y-19870325D01*
X29491738Y-26701975D02*
X29360088Y-26570325D01*
X29360088Y-26570325D02*
X29360088Y-22120325D01*
X31397807Y-26701975D02*
X29491738Y-26701975D01*
%TO.N,GND*%
X32949025Y-21725357D02*
X49838171Y-21725357D01*
X31397807Y-23276575D02*
X32949025Y-21725357D01*
X31397807Y-24161975D02*
X31397807Y-23276575D01*
%TO.N,Column 2*%
X48162171Y-35264415D02*
X48162171Y-33561357D01*
X48162171Y-33561357D02*
X49838171Y-31885357D01*
X51543081Y-38645325D02*
X48162171Y-35264415D01*
X78313336Y-38645325D02*
X51543081Y-38645325D01*
X79613336Y-42597742D02*
X79613336Y-39945325D01*
X79613336Y-39945325D02*
X78313336Y-38645325D01*
%TO.N,Row 0*%
X53083139Y-37670325D02*
X49838171Y-34425357D01*
X86378838Y-37670325D02*
X53083139Y-37670325D01*
X87885088Y-39176575D02*
X86378838Y-37670325D01*
X87885088Y-48281575D02*
X87885088Y-39176575D01*
X86378838Y-49787825D02*
X87885088Y-48281575D01*
%TO.N,+5V*%
X87885088Y-60595325D02*
X87885088Y-51095325D01*
X87885088Y-51095325D02*
X87878838Y-51101575D01*
X85110088Y-63370325D02*
X87885088Y-60595325D01*
X85110088Y-68453934D02*
X85110088Y-63370325D01*
X87878838Y-51101575D02*
X80083108Y-51101575D01*
X83310088Y-70253934D02*
X85110088Y-68453934D01*
X84560088Y-71503934D02*
X83310088Y-70253934D01*
X84560088Y-89170325D02*
X84560088Y-71503934D01*
X83310088Y-70253934D02*
X80122545Y-70253934D01*
X84531175Y-89199238D02*
X84560088Y-89170325D01*
%TO.N,/SDA*%
X63080329Y-29345357D02*
X51218329Y-17483357D01*
X66003171Y-29345357D02*
X63080329Y-29345357D01*
X28558088Y-28942256D02*
X31397807Y-31781975D01*
X28558088Y-19538125D02*
X28558088Y-28942256D01*
X51218329Y-17483357D02*
X30612856Y-17483357D01*
X30612856Y-17483357D02*
X28558088Y-19538125D01*
%TO.N,/SCL*%
X30778956Y-17884357D02*
X28959088Y-19704225D01*
X51052229Y-17884357D02*
X30778956Y-17884357D01*
X65053229Y-31885357D02*
X51052229Y-17884357D01*
X66003171Y-31885357D02*
X65053229Y-31885357D01*
X28959088Y-26803256D02*
X31397807Y-29241975D01*
X28959088Y-19704225D02*
X28959088Y-26803256D01*
%TO.N,Net-(D1-DIN)*%
X67355120Y-24265357D02*
X68735088Y-25645325D01*
X66003171Y-24265357D02*
X67355120Y-24265357D01*
X44060088Y-52470325D02*
X43985619Y-52544794D01*
X43985619Y-52544794D02*
X41740392Y-52544794D01*
%TO.N,Row 1*%
X87265688Y-36483825D02*
X88286088Y-37504225D01*
X88286088Y-37504225D02*
X88286088Y-67422877D01*
X88286088Y-67422877D02*
X86672462Y-69036503D01*
X66003171Y-34425357D02*
X68061639Y-36483825D01*
X68061639Y-36483825D02*
X87265688Y-36483825D01*
%TO.N,Row 2*%
X66003171Y-26805357D02*
X64327171Y-25129357D01*
X88687088Y-37338125D02*
X88687088Y-85848154D01*
X64327171Y-18346299D02*
X64789113Y-17884357D01*
X64327171Y-25129357D02*
X64327171Y-18346299D01*
X69233320Y-17884357D02*
X88687088Y-37338125D01*
X88687088Y-85848154D02*
X86451075Y-88084167D01*
X64789113Y-17884357D02*
X69233320Y-17884357D01*
%TO.N,Net-(D11-DOUT)*%
X36096907Y-70151575D02*
X35756907Y-70151575D01*
X33410088Y-72498394D02*
X33410088Y-74370325D01*
X41553838Y-93389075D02*
X41553838Y-90701575D01*
X35756907Y-70151575D02*
X33410088Y-72498394D01*
X41760088Y-93595325D02*
X41553838Y-93389075D01*
%TO.N,Net-(D12-DOUT)*%
X32335088Y-76945325D02*
X32335088Y-85922825D01*
X32335088Y-85922825D02*
X35613838Y-89201575D01*
X35613838Y-89201575D02*
X35953838Y-89201575D01*
%TO.N,Net-(D13-DOUT)*%
X64293750Y-60228987D02*
X64293750Y-69031359D01*
X63460088Y-59395325D02*
X64293750Y-60228987D01*
X55368531Y-51044794D02*
X55335619Y-51044794D01*
X61575088Y-71750021D02*
X61235088Y-71750021D01*
X64293750Y-69031359D02*
X61575088Y-71750021D01*
X55335619Y-51044794D02*
X55335088Y-51045325D01*
%TO.N,Net-(D14-DOUT)*%
X50735088Y-92720325D02*
X50735088Y-74810021D01*
X60798292Y-91044283D02*
X59122250Y-92720325D01*
X60798292Y-90928833D02*
X60798292Y-91044283D01*
X55295088Y-70250021D02*
X55635088Y-70250021D01*
X59122250Y-92720325D02*
X50735088Y-92720325D01*
X50735088Y-74810021D02*
X55295088Y-70250021D01*
%TO.N,Net-(D15-DOUT)*%
X80083108Y-52601575D02*
X83096988Y-52601575D01*
X52410088Y-89345325D02*
X52493596Y-89428833D01*
X52493596Y-89428833D02*
X55198292Y-89428833D01*
X83096988Y-52601575D02*
X87285088Y-56789675D01*
%TO.N,Net-(D16-DOUT)*%
X74221108Y-51101575D02*
X73432108Y-51890575D01*
X80138936Y-71770325D02*
X80122545Y-71753934D01*
X74483108Y-51101575D02*
X74221108Y-51101575D01*
X73432108Y-51890575D02*
X73432108Y-59718438D01*
X81910088Y-68196418D02*
X81910088Y-69653934D01*
X81910088Y-71770325D02*
X80138936Y-71770325D01*
X73432108Y-59718438D02*
X81910088Y-68196418D01*
%TO.N,Net-(D17-DOUT)*%
X73875101Y-91900738D02*
X79444101Y-91900738D01*
X74481154Y-70295325D02*
X70385088Y-70295325D01*
X69135088Y-87160725D02*
X73875101Y-91900738D01*
X79444101Y-91900738D02*
X80035601Y-91309238D01*
X69135088Y-71445325D02*
X69135088Y-87160725D01*
X69235088Y-71445325D02*
X69135088Y-71445325D01*
X74522545Y-70253934D02*
X74481154Y-70295325D01*
X80035601Y-91309238D02*
X80035601Y-90699238D01*
X70385088Y-70295325D02*
X69235088Y-71445325D01*
%TO.N,Column 0*%
X41507767Y-35135761D02*
X41507767Y-42590023D01*
X49838171Y-26805357D02*
X41507767Y-35135761D01*
%TO.N,Column 1*%
X54924732Y-42594076D02*
X60552750Y-42594076D01*
X47761171Y-35430515D02*
X54924732Y-42594076D01*
X49838171Y-29345357D02*
X47761171Y-31422357D01*
X47761171Y-31422357D02*
X47761171Y-35430515D01*
%TO.N,Net-(U1-GPIO26{slash}ADC0{slash}A0)*%
X72735088Y-25917274D02*
X72735088Y-28445325D01*
X66003171Y-19185357D02*
X72735088Y-25917274D01*
X72735088Y-28445325D02*
X79472588Y-35182825D01*
%TO.N,Net-(U1-GPIO27{slash}ADC1{slash}A1)*%
X66003171Y-21725357D02*
X70071588Y-25793774D01*
X70071588Y-30781825D02*
X74472588Y-35182825D01*
X70071588Y-25793774D02*
X70071588Y-30781825D01*
%TO.N,+5V*%
X43260088Y-94495325D02*
X62160088Y-94495325D01*
X60968531Y-47305041D02*
X60968531Y-51044794D01*
X72774704Y-46703926D02*
X74722336Y-46703926D01*
X60798292Y-89428833D02*
X61138292Y-89428833D01*
X62831761Y-51044794D02*
X67931230Y-45945325D01*
X43781761Y-51044794D02*
X51093479Y-43733076D01*
X80083108Y-47362698D02*
X80083108Y-51101575D01*
X74722336Y-46703926D02*
X76099520Y-45326742D01*
X57396566Y-43733076D02*
X60968531Y-47305041D01*
X84531175Y-94220325D02*
X84531175Y-89199238D01*
X80035601Y-89199238D02*
X84531175Y-89199238D01*
X61235088Y-66883268D02*
X61235088Y-70250021D01*
X62595280Y-52331543D02*
X62595280Y-65523076D01*
X62160088Y-90450629D02*
X62160088Y-94495325D01*
X41740392Y-51044794D02*
X43781761Y-51044794D01*
X60968531Y-51044794D02*
X62831761Y-51044794D01*
X67931230Y-45945325D02*
X72016103Y-45945325D01*
X43260088Y-94495325D02*
X43260088Y-90567825D01*
X41740392Y-51044794D02*
X41784423Y-51088825D01*
X72016103Y-45945325D02*
X72774704Y-46703926D01*
X61308531Y-51044794D02*
X62595280Y-52331543D01*
X84256175Y-94495325D02*
X84531175Y-94220325D01*
X76099520Y-45326742D02*
X78047152Y-45326742D01*
X41893838Y-89201575D02*
X41553838Y-89201575D01*
X60968531Y-51044794D02*
X61012562Y-51088825D01*
X43260088Y-90567825D02*
X41893838Y-89201575D01*
X60968531Y-51044794D02*
X61308531Y-51044794D01*
X41985088Y-50800098D02*
X41740392Y-51044794D01*
X62595280Y-65523076D02*
X61235088Y-66883268D01*
X51093479Y-43733076D02*
X57396566Y-43733076D01*
X78047152Y-45326742D02*
X80083108Y-47362698D01*
X62160088Y-94495325D02*
X84256175Y-94495325D01*
X61138292Y-89428833D02*
X62160088Y-90450629D01*
%TO.N,GND*%
X72185088Y-88770325D02*
X74114001Y-90699238D01*
X36140392Y-52544794D02*
X36140392Y-52660896D01*
X72935088Y-71745325D02*
X74513936Y-71745325D01*
X67382115Y-90395325D02*
X69335088Y-90395325D01*
X65214623Y-88227833D02*
X67382115Y-90395325D01*
X74522545Y-71753934D02*
X74703001Y-71934390D01*
X47335088Y-76195325D02*
X38235088Y-76195325D01*
X33635619Y-52544794D02*
X36140392Y-52544794D01*
X51809088Y-89096382D02*
X52677637Y-88227833D01*
X36602838Y-77827575D02*
X36602838Y-86202575D01*
X54167031Y-53746294D02*
X55368531Y-52544794D01*
X74522545Y-71753934D02*
X74522545Y-72607868D01*
X38235088Y-76195325D02*
X36602838Y-77827575D01*
X55368531Y-53553768D02*
X55385088Y-53570325D01*
X36140392Y-52660896D02*
X37225790Y-53746294D01*
X55368531Y-52544794D02*
X55368531Y-53553768D01*
X36910088Y-73820325D02*
X36096907Y-73007144D01*
X57270392Y-73995325D02*
X55635088Y-72360021D01*
X36602838Y-86202575D02*
X35185088Y-87620325D01*
X52677637Y-88227833D02*
X65214623Y-88227833D01*
X74173601Y-90699238D02*
X74435601Y-90699238D01*
X53143653Y-90928833D02*
X51809088Y-89594268D01*
X74703001Y-71934390D02*
X74703001Y-87169838D01*
X33835088Y-89770325D02*
X34766338Y-90701575D01*
X36096907Y-73007144D02*
X36096907Y-71651575D01*
X74513936Y-71745325D02*
X74522545Y-71753934D01*
X55635088Y-71750021D02*
X54711588Y-71750021D01*
X51809088Y-89594268D02*
X51809088Y-89096382D01*
X73384601Y-88488238D02*
X73384601Y-89910238D01*
X37225790Y-53746294D02*
X54167031Y-53746294D01*
X72235088Y-59495325D02*
X72235088Y-62495325D01*
X67710088Y-73995325D02*
X57270392Y-73995325D01*
X73384601Y-89910238D02*
X74173601Y-90699238D01*
X55635088Y-72360021D02*
X55635088Y-71750021D01*
X74560088Y-53695325D02*
X74560088Y-52678555D01*
X72260088Y-59470325D02*
X72235088Y-59495325D01*
X74114001Y-90699238D02*
X74435601Y-90699238D01*
X54711588Y-71750021D02*
X54110088Y-72351521D01*
X34766338Y-90701575D02*
X35953838Y-90701575D01*
X52185088Y-71345325D02*
X47335088Y-76195325D01*
X74560088Y-52678555D02*
X74483108Y-52601575D01*
X55198292Y-90928833D02*
X53143653Y-90928833D01*
X74703001Y-87169838D02*
X73384601Y-88488238D01*
X33585088Y-52595325D02*
X33635619Y-52544794D01*
X74522545Y-72607868D02*
X73060088Y-74070325D01*
%TD*%
M02*
