M48
; DRILL file {KiCad 9.0.1} date 2025-06-04T21:26:04-0500
; FORMAT={-:-/ absolute / metric / decimal}
; #@! TF.CreationDate,2025-06-04T21:26:04-05:00
; #@! TF.GenerationSoftware,Kicad,Pcbnew,9.0.1
; #@! TF.FileFunction,NonPlated,1,2,NPTH
FMAT,2
METRIC
; #@! TA.AperFunction,NonPlated,NPTH,ComponentDrill
T1C1.700
; #@! TA.AperFunction,NonPlated,NPTH,ComponentDrill
T2C4.000
%
G90
G05
T1
X33.88Y-85.725
X33.883Y-66.724
X33.888Y-47.67
X44.04Y-85.725
X44.043Y-66.724
X44.048Y-47.67
X52.929Y-85.774
X52.933Y-47.674
X52.933Y-66.724
X63.089Y-85.774
X63.093Y-47.674
X63.093Y-66.724
X71.979Y-66.726
X71.993Y-47.678
X72.009Y-85.757
X82.139Y-66.726
X82.153Y-47.678
X82.169Y-85.757
T2
X38.96Y-85.725
X38.963Y-66.724
X38.968Y-47.67
X58.009Y-85.774
X58.013Y-47.674
X58.013Y-66.724
X77.059Y-66.726
X77.073Y-47.678
X77.089Y-85.757
M30
