%TF.GenerationSoftware,KiCad,Pcbnew,9.0.1*%
%TF.CreationDate,2025-06-05T14:05:19-05:00*%
%TF.ProjectId,CopyPAD,436f7079-5041-4442-9e6b-696361645f70,rev?*%
%TF.SameCoordinates,Original*%
%TF.FileFunction,Legend,Bot*%
%TF.FilePolarity,Positive*%
%FSLAX46Y46*%
G04 Gerber Fmt 4.6, Leading zero omitted, Abs format (unit mm)*
G04 Created by KiCad (PCBNEW 9.0.1) date 2025-06-05 14:05:19*
%MOMM*%
%LPD*%
G01*
G04 APERTURE LIST*
%ADD10C,0.100000*%
%ADD11C,0.150000*%
%ADD12C,0.127000*%
G04 APERTURE END LIST*
D10*
X61703853Y-27447419D02*
X61037187Y-28447419D01*
X61037187Y-27447419D02*
X61703853Y-28447419D01*
X60703853Y-28161704D02*
X60227663Y-28161704D01*
X60799091Y-28447419D02*
X60465758Y-27447419D01*
X60465758Y-27447419D02*
X60132425Y-28447419D01*
X59799091Y-28447419D02*
X59799091Y-27447419D01*
X59132425Y-27447419D02*
X58941949Y-27447419D01*
X58941949Y-27447419D02*
X58846711Y-27495038D01*
X58846711Y-27495038D02*
X58751473Y-27590276D01*
X58751473Y-27590276D02*
X58703854Y-27780752D01*
X58703854Y-27780752D02*
X58703854Y-28114085D01*
X58703854Y-28114085D02*
X58751473Y-28304561D01*
X58751473Y-28304561D02*
X58846711Y-28399800D01*
X58846711Y-28399800D02*
X58941949Y-28447419D01*
X58941949Y-28447419D02*
X59132425Y-28447419D01*
X59132425Y-28447419D02*
X59227663Y-28399800D01*
X59227663Y-28399800D02*
X59322901Y-28304561D01*
X59322901Y-28304561D02*
X59370520Y-28114085D01*
X59370520Y-28114085D02*
X59370520Y-27780752D01*
X59370520Y-27780752D02*
X59322901Y-27590276D01*
X59322901Y-27590276D02*
X59227663Y-27495038D01*
X59227663Y-27495038D02*
X59132425Y-27447419D01*
X57513377Y-28447419D02*
X57513377Y-27447419D01*
X57513377Y-27923609D02*
X56941949Y-27923609D01*
X56941949Y-28447419D02*
X56941949Y-27447419D01*
X56465758Y-27923609D02*
X56132425Y-27923609D01*
X55989568Y-28447419D02*
X56465758Y-28447419D01*
X56465758Y-28447419D02*
X56465758Y-27447419D01*
X56465758Y-27447419D02*
X55989568Y-27447419D01*
X54989568Y-28447419D02*
X55322901Y-27971228D01*
X55560996Y-28447419D02*
X55560996Y-27447419D01*
X55560996Y-27447419D02*
X55180044Y-27447419D01*
X55180044Y-27447419D02*
X55084806Y-27495038D01*
X55084806Y-27495038D02*
X55037187Y-27542657D01*
X55037187Y-27542657D02*
X54989568Y-27637895D01*
X54989568Y-27637895D02*
X54989568Y-27780752D01*
X54989568Y-27780752D02*
X55037187Y-27875990D01*
X55037187Y-27875990D02*
X55084806Y-27923609D01*
X55084806Y-27923609D02*
X55180044Y-27971228D01*
X55180044Y-27971228D02*
X55560996Y-27971228D01*
X54560996Y-27923609D02*
X54227663Y-27923609D01*
X54084806Y-28447419D02*
X54560996Y-28447419D01*
X54560996Y-28447419D02*
X54560996Y-27447419D01*
X54560996Y-27447419D02*
X54084806Y-27447419D01*
X53656234Y-28352180D02*
X53608615Y-28399800D01*
X53608615Y-28399800D02*
X53656234Y-28447419D01*
X53656234Y-28447419D02*
X53703853Y-28399800D01*
X53703853Y-28399800D02*
X53656234Y-28352180D01*
X53656234Y-28352180D02*
X53656234Y-28447419D01*
X53656234Y-28066466D02*
X53703853Y-27495038D01*
X53703853Y-27495038D02*
X53656234Y-27447419D01*
X53656234Y-27447419D02*
X53608615Y-27495038D01*
X53608615Y-27495038D02*
X53656234Y-28066466D01*
X53656234Y-28066466D02*
X53656234Y-27447419D01*
D11*
X40111192Y-71356394D02*
X40111192Y-70356394D01*
X40111192Y-70356394D02*
X39873097Y-70356394D01*
X39873097Y-70356394D02*
X39730240Y-70404013D01*
X39730240Y-70404013D02*
X39635002Y-70499251D01*
X39635002Y-70499251D02*
X39587383Y-70594489D01*
X39587383Y-70594489D02*
X39539764Y-70784965D01*
X39539764Y-70784965D02*
X39539764Y-70927822D01*
X39539764Y-70927822D02*
X39587383Y-71118298D01*
X39587383Y-71118298D02*
X39635002Y-71213536D01*
X39635002Y-71213536D02*
X39730240Y-71308775D01*
X39730240Y-71308775D02*
X39873097Y-71356394D01*
X39873097Y-71356394D02*
X40111192Y-71356394D01*
X38587383Y-71356394D02*
X39158811Y-71356394D01*
X38873097Y-71356394D02*
X38873097Y-70356394D01*
X38873097Y-70356394D02*
X38968335Y-70499251D01*
X38968335Y-70499251D02*
X39063573Y-70594489D01*
X39063573Y-70594489D02*
X39158811Y-70642108D01*
X37635002Y-71356394D02*
X38206430Y-71356394D01*
X37920716Y-71356394D02*
X37920716Y-70356394D01*
X37920716Y-70356394D02*
X38015954Y-70499251D01*
X38015954Y-70499251D02*
X38111192Y-70594489D01*
X38111192Y-70594489D02*
X38206430Y-70642108D01*
X78497393Y-52306394D02*
X78497393Y-51306394D01*
X78497393Y-51306394D02*
X78259298Y-51306394D01*
X78259298Y-51306394D02*
X78116441Y-51354013D01*
X78116441Y-51354013D02*
X78021203Y-51449251D01*
X78021203Y-51449251D02*
X77973584Y-51544489D01*
X77973584Y-51544489D02*
X77925965Y-51734965D01*
X77925965Y-51734965D02*
X77925965Y-51877822D01*
X77925965Y-51877822D02*
X77973584Y-52068298D01*
X77973584Y-52068298D02*
X78021203Y-52163536D01*
X78021203Y-52163536D02*
X78116441Y-52258775D01*
X78116441Y-52258775D02*
X78259298Y-52306394D01*
X78259298Y-52306394D02*
X78497393Y-52306394D01*
X76973584Y-52306394D02*
X77545012Y-52306394D01*
X77259298Y-52306394D02*
X77259298Y-51306394D01*
X77259298Y-51306394D02*
X77354536Y-51449251D01*
X77354536Y-51449251D02*
X77449774Y-51544489D01*
X77449774Y-51544489D02*
X77545012Y-51592108D01*
X76116441Y-51306394D02*
X76306917Y-51306394D01*
X76306917Y-51306394D02*
X76402155Y-51354013D01*
X76402155Y-51354013D02*
X76449774Y-51401632D01*
X76449774Y-51401632D02*
X76545012Y-51544489D01*
X76545012Y-51544489D02*
X76592631Y-51734965D01*
X76592631Y-51734965D02*
X76592631Y-52115917D01*
X76592631Y-52115917D02*
X76545012Y-52211155D01*
X76545012Y-52211155D02*
X76497393Y-52258775D01*
X76497393Y-52258775D02*
X76402155Y-52306394D01*
X76402155Y-52306394D02*
X76211679Y-52306394D01*
X76211679Y-52306394D02*
X76116441Y-52258775D01*
X76116441Y-52258775D02*
X76068822Y-52211155D01*
X76068822Y-52211155D02*
X76021203Y-52115917D01*
X76021203Y-52115917D02*
X76021203Y-51877822D01*
X76021203Y-51877822D02*
X76068822Y-51782584D01*
X76068822Y-51782584D02*
X76116441Y-51734965D01*
X76116441Y-51734965D02*
X76211679Y-51687346D01*
X76211679Y-51687346D02*
X76402155Y-51687346D01*
X76402155Y-51687346D02*
X76497393Y-51734965D01*
X76497393Y-51734965D02*
X76545012Y-51782584D01*
X76545012Y-51782584D02*
X76592631Y-51877822D01*
X78536830Y-71458753D02*
X78536830Y-70458753D01*
X78536830Y-70458753D02*
X78298735Y-70458753D01*
X78298735Y-70458753D02*
X78155878Y-70506372D01*
X78155878Y-70506372D02*
X78060640Y-70601610D01*
X78060640Y-70601610D02*
X78013021Y-70696848D01*
X78013021Y-70696848D02*
X77965402Y-70887324D01*
X77965402Y-70887324D02*
X77965402Y-71030181D01*
X77965402Y-71030181D02*
X78013021Y-71220657D01*
X78013021Y-71220657D02*
X78060640Y-71315895D01*
X78060640Y-71315895D02*
X78155878Y-71411134D01*
X78155878Y-71411134D02*
X78298735Y-71458753D01*
X78298735Y-71458753D02*
X78536830Y-71458753D01*
X77013021Y-71458753D02*
X77584449Y-71458753D01*
X77298735Y-71458753D02*
X77298735Y-70458753D01*
X77298735Y-70458753D02*
X77393973Y-70601610D01*
X77393973Y-70601610D02*
X77489211Y-70696848D01*
X77489211Y-70696848D02*
X77584449Y-70744467D01*
X76679687Y-70458753D02*
X76013021Y-70458753D01*
X76013021Y-70458753D02*
X76441592Y-71458753D01*
X59649373Y-71454840D02*
X59649373Y-70454840D01*
X59649373Y-70454840D02*
X59411278Y-70454840D01*
X59411278Y-70454840D02*
X59268421Y-70502459D01*
X59268421Y-70502459D02*
X59173183Y-70597697D01*
X59173183Y-70597697D02*
X59125564Y-70692935D01*
X59125564Y-70692935D02*
X59077945Y-70883411D01*
X59077945Y-70883411D02*
X59077945Y-71026268D01*
X59077945Y-71026268D02*
X59125564Y-71216744D01*
X59125564Y-71216744D02*
X59173183Y-71311982D01*
X59173183Y-71311982D02*
X59268421Y-71407221D01*
X59268421Y-71407221D02*
X59411278Y-71454840D01*
X59411278Y-71454840D02*
X59649373Y-71454840D01*
X58125564Y-71454840D02*
X58696992Y-71454840D01*
X58411278Y-71454840D02*
X58411278Y-70454840D01*
X58411278Y-70454840D02*
X58506516Y-70597697D01*
X58506516Y-70597697D02*
X58601754Y-70692935D01*
X58601754Y-70692935D02*
X58696992Y-70740554D01*
X57268421Y-70788173D02*
X57268421Y-71454840D01*
X57506516Y-70407221D02*
X57744611Y-71121506D01*
X57744611Y-71121506D02*
X57125564Y-71121506D01*
X39968123Y-90406394D02*
X39968123Y-89406394D01*
X39968123Y-89406394D02*
X39730028Y-89406394D01*
X39730028Y-89406394D02*
X39587171Y-89454013D01*
X39587171Y-89454013D02*
X39491933Y-89549251D01*
X39491933Y-89549251D02*
X39444314Y-89644489D01*
X39444314Y-89644489D02*
X39396695Y-89834965D01*
X39396695Y-89834965D02*
X39396695Y-89977822D01*
X39396695Y-89977822D02*
X39444314Y-90168298D01*
X39444314Y-90168298D02*
X39491933Y-90263536D01*
X39491933Y-90263536D02*
X39587171Y-90358775D01*
X39587171Y-90358775D02*
X39730028Y-90406394D01*
X39730028Y-90406394D02*
X39968123Y-90406394D01*
X38444314Y-90406394D02*
X39015742Y-90406394D01*
X38730028Y-90406394D02*
X38730028Y-89406394D01*
X38730028Y-89406394D02*
X38825266Y-89549251D01*
X38825266Y-89549251D02*
X38920504Y-89644489D01*
X38920504Y-89644489D02*
X39015742Y-89692108D01*
X38063361Y-89501632D02*
X38015742Y-89454013D01*
X38015742Y-89454013D02*
X37920504Y-89406394D01*
X37920504Y-89406394D02*
X37682409Y-89406394D01*
X37682409Y-89406394D02*
X37587171Y-89454013D01*
X37587171Y-89454013D02*
X37539552Y-89501632D01*
X37539552Y-89501632D02*
X37491933Y-89596870D01*
X37491933Y-89596870D02*
X37491933Y-89692108D01*
X37491933Y-89692108D02*
X37539552Y-89834965D01*
X37539552Y-89834965D02*
X38110980Y-90406394D01*
X38110980Y-90406394D02*
X37491933Y-90406394D01*
X59212577Y-90633652D02*
X59212577Y-89633652D01*
X59212577Y-89633652D02*
X58974482Y-89633652D01*
X58974482Y-89633652D02*
X58831625Y-89681271D01*
X58831625Y-89681271D02*
X58736387Y-89776509D01*
X58736387Y-89776509D02*
X58688768Y-89871747D01*
X58688768Y-89871747D02*
X58641149Y-90062223D01*
X58641149Y-90062223D02*
X58641149Y-90205080D01*
X58641149Y-90205080D02*
X58688768Y-90395556D01*
X58688768Y-90395556D02*
X58736387Y-90490794D01*
X58736387Y-90490794D02*
X58831625Y-90586033D01*
X58831625Y-90586033D02*
X58974482Y-90633652D01*
X58974482Y-90633652D02*
X59212577Y-90633652D01*
X57688768Y-90633652D02*
X58260196Y-90633652D01*
X57974482Y-90633652D02*
X57974482Y-89633652D01*
X57974482Y-89633652D02*
X58069720Y-89776509D01*
X58069720Y-89776509D02*
X58164958Y-89871747D01*
X58164958Y-89871747D02*
X58260196Y-89919366D01*
X56784006Y-89633652D02*
X57260196Y-89633652D01*
X57260196Y-89633652D02*
X57307815Y-90109842D01*
X57307815Y-90109842D02*
X57260196Y-90062223D01*
X57260196Y-90062223D02*
X57164958Y-90014604D01*
X57164958Y-90014604D02*
X56926863Y-90014604D01*
X56926863Y-90014604D02*
X56831625Y-90062223D01*
X56831625Y-90062223D02*
X56784006Y-90109842D01*
X56784006Y-90109842D02*
X56736387Y-90205080D01*
X56736387Y-90205080D02*
X56736387Y-90443175D01*
X56736387Y-90443175D02*
X56784006Y-90538413D01*
X56784006Y-90538413D02*
X56831625Y-90586033D01*
X56831625Y-90586033D02*
X56926863Y-90633652D01*
X56926863Y-90633652D02*
X57164958Y-90633652D01*
X57164958Y-90633652D02*
X57260196Y-90586033D01*
X57260196Y-90586033D02*
X57307815Y-90538413D01*
X59382816Y-52249613D02*
X59382816Y-51249613D01*
X59382816Y-51249613D02*
X59144721Y-51249613D01*
X59144721Y-51249613D02*
X59001864Y-51297232D01*
X59001864Y-51297232D02*
X58906626Y-51392470D01*
X58906626Y-51392470D02*
X58859007Y-51487708D01*
X58859007Y-51487708D02*
X58811388Y-51678184D01*
X58811388Y-51678184D02*
X58811388Y-51821041D01*
X58811388Y-51821041D02*
X58859007Y-52011517D01*
X58859007Y-52011517D02*
X58906626Y-52106755D01*
X58906626Y-52106755D02*
X59001864Y-52201994D01*
X59001864Y-52201994D02*
X59144721Y-52249613D01*
X59144721Y-52249613D02*
X59382816Y-52249613D01*
X57859007Y-52249613D02*
X58430435Y-52249613D01*
X58144721Y-52249613D02*
X58144721Y-51249613D01*
X58144721Y-51249613D02*
X58239959Y-51392470D01*
X58239959Y-51392470D02*
X58335197Y-51487708D01*
X58335197Y-51487708D02*
X58430435Y-51535327D01*
X57525673Y-51249613D02*
X56906626Y-51249613D01*
X56906626Y-51249613D02*
X57239959Y-51630565D01*
X57239959Y-51630565D02*
X57097102Y-51630565D01*
X57097102Y-51630565D02*
X57001864Y-51678184D01*
X57001864Y-51678184D02*
X56954245Y-51725803D01*
X56954245Y-51725803D02*
X56906626Y-51821041D01*
X56906626Y-51821041D02*
X56906626Y-52059136D01*
X56906626Y-52059136D02*
X56954245Y-52154374D01*
X56954245Y-52154374D02*
X57001864Y-52201994D01*
X57001864Y-52201994D02*
X57097102Y-52249613D01*
X57097102Y-52249613D02*
X57382816Y-52249613D01*
X57382816Y-52249613D02*
X57478054Y-52201994D01*
X57478054Y-52201994D02*
X57525673Y-52154374D01*
X78449886Y-90404057D02*
X78449886Y-89404057D01*
X78449886Y-89404057D02*
X78211791Y-89404057D01*
X78211791Y-89404057D02*
X78068934Y-89451676D01*
X78068934Y-89451676D02*
X77973696Y-89546914D01*
X77973696Y-89546914D02*
X77926077Y-89642152D01*
X77926077Y-89642152D02*
X77878458Y-89832628D01*
X77878458Y-89832628D02*
X77878458Y-89975485D01*
X77878458Y-89975485D02*
X77926077Y-90165961D01*
X77926077Y-90165961D02*
X77973696Y-90261199D01*
X77973696Y-90261199D02*
X78068934Y-90356438D01*
X78068934Y-90356438D02*
X78211791Y-90404057D01*
X78211791Y-90404057D02*
X78449886Y-90404057D01*
X76926077Y-90404057D02*
X77497505Y-90404057D01*
X77211791Y-90404057D02*
X77211791Y-89404057D01*
X77211791Y-89404057D02*
X77307029Y-89546914D01*
X77307029Y-89546914D02*
X77402267Y-89642152D01*
X77402267Y-89642152D02*
X77497505Y-89689771D01*
X76354648Y-89832628D02*
X76449886Y-89785009D01*
X76449886Y-89785009D02*
X76497505Y-89737390D01*
X76497505Y-89737390D02*
X76545124Y-89642152D01*
X76545124Y-89642152D02*
X76545124Y-89594533D01*
X76545124Y-89594533D02*
X76497505Y-89499295D01*
X76497505Y-89499295D02*
X76449886Y-89451676D01*
X76449886Y-89451676D02*
X76354648Y-89404057D01*
X76354648Y-89404057D02*
X76164172Y-89404057D01*
X76164172Y-89404057D02*
X76068934Y-89451676D01*
X76068934Y-89451676D02*
X76021315Y-89499295D01*
X76021315Y-89499295D02*
X75973696Y-89594533D01*
X75973696Y-89594533D02*
X75973696Y-89642152D01*
X75973696Y-89642152D02*
X76021315Y-89737390D01*
X76021315Y-89737390D02*
X76068934Y-89785009D01*
X76068934Y-89785009D02*
X76164172Y-89832628D01*
X76164172Y-89832628D02*
X76354648Y-89832628D01*
X76354648Y-89832628D02*
X76449886Y-89880247D01*
X76449886Y-89880247D02*
X76497505Y-89927866D01*
X76497505Y-89927866D02*
X76545124Y-90023104D01*
X76545124Y-90023104D02*
X76545124Y-90213580D01*
X76545124Y-90213580D02*
X76497505Y-90308818D01*
X76497505Y-90308818D02*
X76449886Y-90356438D01*
X76449886Y-90356438D02*
X76354648Y-90404057D01*
X76354648Y-90404057D02*
X76164172Y-90404057D01*
X76164172Y-90404057D02*
X76068934Y-90356438D01*
X76068934Y-90356438D02*
X76021315Y-90308818D01*
X76021315Y-90308818D02*
X75973696Y-90213580D01*
X75973696Y-90213580D02*
X75973696Y-90023104D01*
X75973696Y-90023104D02*
X76021315Y-89927866D01*
X76021315Y-89927866D02*
X76068934Y-89880247D01*
X76068934Y-89880247D02*
X76164172Y-89832628D01*
D10*
%TO.C,U1*%
X49058171Y-35318357D02*
X49058171Y-18173357D01*
X50963171Y-16268357D02*
X64933171Y-16268357D01*
D12*
X53444171Y-15358357D02*
X53444171Y-16268357D01*
X61939443Y-14858357D02*
X53944171Y-14858357D01*
X62443171Y-16268357D02*
X62439443Y-15358085D01*
D10*
X64933171Y-37223357D02*
X50963171Y-37223357D01*
X66838171Y-35318357D02*
X66838171Y-18173357D01*
X49058171Y-18173357D02*
G75*
G02*
X50963171Y-16268357I1905000J0D01*
G01*
X50963171Y-37223357D02*
G75*
G02*
X49058171Y-35318357I0J1905000D01*
G01*
D12*
X53444171Y-15358357D02*
G75*
G02*
X53944171Y-14858357I500000J0D01*
G01*
X61939443Y-14858357D02*
G75*
G02*
X62439444Y-15358085I-18J-500019D01*
G01*
D10*
X64933171Y-16264357D02*
G75*
G02*
X66838171Y-18169357I-1J-1905001D01*
G01*
X66838171Y-35318357D02*
G75*
G02*
X64933171Y-37223357I-1905001J1D01*
G01*
%TD*%
M02*
